<?xml version="1.0" encoding="utf-8"?>
<!-- Generator: Adobe Illustrator 24.3.0, SVG Export Plug-In . SVG Version: 6.00 Build 0)  -->
<svg version="1.1" id="Layer_1" xmlns="http://www.w3.org/2000/svg" xmlns:xlink="http://www.w3.org/1999/xlink" x="0px" y="0px"
	 viewBox="0 0 102 56" style="enable-background:new 0 0 102 56;" xml:space="preserve">
<style type="text/css">
	.st0{fill:#FFF4E8;}
</style>
<g>
	<rect x="116.9" y="66.5" width="101" height="55"/>
	<path class="st0" d="M217.4,67v54h-100V67H217.4 M218.4,66h-102v56h102V66L218.4,66z"/>
</g>
<g>
	<g>
		<path class="st0" d="M201.5,81.9c0,0,0,0,0.2,0c0.2,0,0.3,0,0.3,0c-0.1-0.4-0.2-1.1-0.5-2.1c-0.2-1.1-0.4-2-0.5-2.7
			c-1.4,0-3.4,0.1-6,0.2c-2.8,0.1-4.8,0.2-5.9,0.2c-1.6,0-3,0-4.3-0.1c0,0.1,0,0.2,0,0.3c0,0.1,0,0.1,0,0.2c0.3,0,0.8,0.1,1.4,0.3
			c0.8,0.2,1.2,0.5,1.3,0.8c0.2,0.8,0.3,1.9,0.3,3.4v14.9c0,1.7-0.1,2.8-0.3,3.6c-0.1,0.3-0.5,0.6-1.3,0.8c-0.6,0.1-1,0.2-1.3,0.2
			c0,0.1,0,0.1,0,0.2c0,0.1,0,0.2,0,0.3c4.2-0.2,4.3-0.2,4.3-0.2c0.4,0,1.8,0.1,4.1,0.2c0-0.1,0-0.1,0-0.2c0-0.1,0-0.2,0-0.3
			c-0.3,0-0.7-0.1-1.3-0.2c-0.8-0.2-1.2-0.4-1.3-0.8c-0.2-0.9-0.4-2.2-0.4-3.7v-6.1c0-0.4,0.4-0.6,3-0.6c3.2,0,3.9,0.2,4.2,0.4
			c0.2,0.1,0.3,0.2,0.4,0.3c0.1,0.1,0.2,0.3,0.4,0.7c0.1,0.3,0.3,0.9,0.5,1.6c0,0,0.1,0.1,0.3,0.1c0.1,0,0.2,0,0.3,0v-7.2
			c-0.1,0-0.2,0-0.3,0c-0.2,0-0.3,0-0.3,0c0,0.1,0,0.2-0.1,0.3c-0.3,1.3-0.7,2-1.1,2.3c-0.3,0.2-0.9,0.4-3.3,0.4h-2
			c-1.4,0-1.9-0.1-1.9-0.5v-6.3c0-1.6,0.1-2.7,0.2-3.3c0.1-0.5,0.7-0.7,3.6-0.7h2.5c1.2,0,2.2,0.2,2.9,0.7
			C200.5,79.4,201.1,80.4,201.5,81.9z"/>
	</g>
	<g>
		<path class="st0" d="M161.9,100.6c1.3,1.1,3,1.6,5.2,1.6c2.3,0,4.6-0.9,6.7-2.8l0.2-0.2l0.8,0.9c0.4,0.4,0.9,0.9,1.6,1.3
			c1.4,0.9,2.7,0.7,3.6,0.3c0.5-0.2,0.9-0.5,1.2-0.9c0.3-0.4,0.5-0.7,0.7-0.9c0.1-0.2,0.2-0.3,0.3-0.5c0,0-0.1-0.1-0.2-0.2
			c-0.1-0.1-0.1-0.1-0.2-0.1c-0.2,0.3-0.4,0.6-0.8,1c-0.7,0.8-1.5,0.9-2.1,0.6c-0.3-0.2-0.6-0.4-1-0.7c-0.4-0.4-0.7-0.7-0.9-0.9
			c-0.2-0.2-0.6-0.7-1.2-1.3l-0.2-0.2l0.2-0.2c0.7-0.8,1.3-1.7,1.9-2.6c0.6-0.9,1.1-1.7,1.4-2.2c0.5-0.9,0.5-0.9,0.6-0.9l0.1,0
			c0.2-0.1,0.7-0.3,1.3-0.5c0.6-0.1,1-0.2,1.4-0.2c0,0,0-0.1,0-0.3c0-0.1,0-0.2,0-0.2c-0.4,0-0.8,0-1.4,0.1c-0.6,0-1,0.1-1.5,0.1
			c-0.4,0-0.8,0-1.2,0h-2.8c0,0,0,0.1,0,0.1c0,0.1,0,0.2,0,0.2c0.1,0,0.2,0,0.3,0c0.3,0,0.6,0.1,0.9,0.2c0.3,0.1,0.6,0.4,0.6,0.7
			c0,0.2-0.1,0.6-0.6,1.8c-0.4,0.9-0.9,1.9-1.6,2.9l-0.2,0.3l-0.3-0.3c-2.3-2.6-4.2-5.2-5.6-7.7l-0.1-0.2l0.2-0.2
			c1.8-1.1,3.1-2.2,4.1-3.3c0.9-1,1.4-2.3,1.4-3.8c0-1.3-0.4-2.2-1.4-2.9c-0.9-0.7-2.2-1.1-3.8-1.1c-1.5,0-2.8,0.5-3.7,1.5
			c-1,1-1.5,2.1-1.5,3.5c0,0.8,0.1,1.6,0.4,2.4c0.2,0.8,0.5,1.5,0.7,2c0.2,0.5,0.6,1.1,1.1,1.9l0.2,0.3l-0.3,0.1
			c-1.9,1-3.4,2.1-4.5,3.2c-1,1-1.6,2.4-1.6,4C160.1,98.2,160.7,99.6,161.9,100.6z M166.3,81.4c0-1,0.3-1.7,1-2.3
			c0.6-0.6,1.4-0.9,2.3-0.9c0.9,0,1.6,0.4,2.2,1.2c0.5,0.7,0.8,1.6,0.8,2.6c0,1.5-0.3,2.6-1,3.5c-0.6,0.8-1.6,1.6-2.9,2.4l-0.3,0.2
			l-0.1-0.3C166.9,85.2,166.3,83.1,166.3,81.4z M163.3,93.2c0.4-0.8,0.9-1.3,1.4-1.7c0.4-0.4,1.1-0.9,2-1.5l0.3-0.2l1.2,1.8
			c0.7,1,1.5,2.3,2.5,3.7c1,1.4,1.9,2.5,2.6,3.2l0.2,0.2l-0.2,0.2c-0.6,0.7-1.4,1.2-2.3,1.6c-0.9,0.4-1.8,0.6-2.6,0.6
			c-1.6,0-2.9-0.5-4-1.3c-1.1-0.9-1.7-2.3-1.7-4.1C162.7,94.8,162.9,94,163.3,93.2z"/>
	</g>
	<g>
		<path class="st0" d="M156.5,91.4c0-0.1,0-0.2,0-0.2c-2.4,0.1-3.6,0.2-3.8,0.2c0,0-0.1,0-4.8-0.2c0,0.1,0,0.2,0,0.3
			c0,0.1,0,0.1,0,0.2c0.4,0,0.9,0.1,1.6,0.2c0.9,0.2,1.3,0.4,1.5,0.8c0.2,0.6,0.3,1.7,0.3,3.4v0.3l0,3.2c0,0.5-0.2,0.8-0.4,0.9
			c-1.1,0.6-2.8,0.9-5,0.9c-2.9,0-5.3-1.2-7.2-3.7c-1.9-2.5-2.8-5.2-2.8-8.1c0-3.1,0.9-5.9,2.6-8.1c1.7-2.3,3.9-3.4,6.5-3.4
			c4.6,0,7.2,1.8,8,5.5c0,0,0.1,0,0.2,0c0.5,0,0.5-0.2,0.5-0.3c0-0.2,0-1.8-0.1-4.6c-4-1.1-6.9-1.7-8.6-1.7c-3.4,0-6.2,1.3-8.6,3.8
			c-2.3,2.5-3.5,5.6-3.5,9.2c0,3.4,1.1,6.3,3.4,8.7c2.3,2.4,5,3.7,8.3,3.7c0.6,0,1.2,0,1.8-0.1c0.6,0,1.1-0.1,1.5-0.1
			c0.5,0,0.9-0.1,1.4-0.2l1.1-0.2c0.3-0.1,0.6-0.1,1-0.3c0.4-0.1,0.7-0.2,0.8-0.3c0.1-0.1,0.4-0.2,0.8-0.3c0.4-0.2,0.7-0.3,0.7-0.3
			c0.7-0.3,0.8-0.4,0.8-0.5c0,0,0-0.1-0.2-0.6c-0.2-0.5-0.3-1-0.3-1.5c0-0.1,0-0.4-0.1-1c0-0.7,0-1.3,0-1.8c0-2.2,0.2-2.6,0.5-2.8
			c0.3-0.2,0.7-0.3,1.2-0.5c0.5-0.2,0.8-0.2,1-0.3C156.5,91.6,156.5,91.5,156.5,91.4z"/>
	</g>
</g>
<text transform="matrix(1 0 0 1 134.0667 112.1945)" class="st0" style="font-family:'DMSans-Regular'; font-size:5.955px;">by Dr. Debjani Majumdar</text>
<g>
	<rect x="116.9" y="0.5" width="101" height="55"/>
	<path class="st0" d="M217.4,1v54h-100V1H217.4 M218.4,0h-102v56h102V0L218.4,0z"/>
</g>
<g>
	<g>
		<path class="st0" d="M201.5,14.9c0,0,0,0,0.2,0c0.2,0,0.3,0,0.3,0c-0.1-0.4-0.2-1.1-0.5-2.1c-0.2-1.1-0.4-2-0.5-2.7
			c-1.4,0-3.4,0.1-6,0.2c-2.8,0.1-4.8,0.2-5.9,0.2c-1.6,0-3,0-4.3-0.1c0,0.1,0,0.2,0,0.3c0,0.1,0,0.1,0,0.2c0.3,0,0.8,0.1,1.4,0.3
			c0.8,0.2,1.2,0.5,1.3,0.8c0.2,0.8,0.3,1.9,0.3,3.4v14.9c0,1.7-0.1,2.8-0.3,3.6c-0.1,0.3-0.5,0.6-1.3,0.8c-0.6,0.1-1,0.2-1.3,0.2
			c0,0.1,0,0.1,0,0.2c0,0.1,0,0.2,0,0.3c4.2-0.2,4.3-0.2,4.3-0.2c0.4,0,1.8,0.1,4.1,0.2c0-0.1,0-0.1,0-0.2c0-0.1,0-0.2,0-0.3
			c-0.3,0-0.7-0.1-1.3-0.2c-0.8-0.2-1.2-0.4-1.3-0.8c-0.2-0.9-0.4-2.2-0.4-3.7V24c0-0.4,0.4-0.6,3-0.6c3.2,0,3.9,0.2,4.2,0.4
			c0.2,0.1,0.3,0.2,0.4,0.3c0.1,0.1,0.2,0.3,0.4,0.7c0.1,0.3,0.3,0.9,0.5,1.6c0,0,0.1,0.1,0.3,0.1c0.1,0,0.2,0,0.3,0v-7.2
			c-0.1,0-0.2,0-0.3,0c-0.2,0-0.3,0-0.3,0c0,0.1,0,0.2-0.1,0.3c-0.3,1.3-0.7,2-1.1,2.3c-0.3,0.2-0.9,0.4-3.3,0.4h-2
			c-1.4,0-1.9-0.1-1.9-0.5v-6.3c0-1.6,0.1-2.7,0.2-3.3c0.1-0.5,0.7-0.7,3.6-0.7h2.5c1.2,0,2.2,0.2,2.9,0.7
			C200.5,12.4,201.1,13.4,201.5,14.9z"/>
	</g>
	<g>
		<path class="st0" d="M161.9,33.7c1.3,1.1,3,1.6,5.2,1.6c2.3,0,4.6-0.9,6.7-2.8l0.2-0.2l0.8,0.9c0.4,0.4,0.9,0.9,1.6,1.3
			c1.4,0.9,2.7,0.7,3.6,0.3c0.5-0.2,0.9-0.5,1.2-0.9c0.3-0.4,0.5-0.7,0.7-0.9c0.1-0.2,0.2-0.3,0.3-0.5c0,0-0.1-0.1-0.2-0.2
			c-0.1-0.1-0.1-0.1-0.2-0.1c-0.2,0.3-0.4,0.6-0.8,1c-0.7,0.8-1.5,0.9-2.1,0.6c-0.3-0.2-0.6-0.4-1-0.7c-0.4-0.4-0.7-0.7-0.9-0.9
			c-0.2-0.2-0.6-0.7-1.2-1.3l-0.2-0.2l0.2-0.2c0.7-0.8,1.3-1.7,1.9-2.6c0.6-0.9,1.1-1.7,1.4-2.2c0.5-0.9,0.5-0.9,0.6-0.9l0.1,0
			c0.2-0.1,0.7-0.3,1.3-0.5c0.6-0.1,1-0.2,1.4-0.2c0,0,0-0.1,0-0.3c0-0.1,0-0.2,0-0.2c-0.4,0-0.8,0-1.4,0.1c-0.6,0-1,0.1-1.5,0.1
			c-0.4,0-0.8,0-1.2,0h-2.8c0,0,0,0.1,0,0.1c0,0.1,0,0.2,0,0.2c0.1,0,0.2,0,0.3,0c0.3,0,0.6,0.1,0.9,0.2c0.3,0.1,0.6,0.4,0.6,0.7
			c0,0.2-0.1,0.6-0.6,1.8c-0.4,0.9-0.9,1.9-1.6,2.9l-0.2,0.3l-0.3-0.3c-2.3-2.6-4.2-5.2-5.6-7.7l-0.1-0.2l0.2-0.2
			c1.8-1.1,3.1-2.2,4.1-3.3c0.9-1,1.4-2.3,1.4-3.8c0-1.3-0.4-2.2-1.4-2.9c-0.9-0.7-2.2-1.1-3.8-1.1c-1.5,0-2.8,0.5-3.7,1.5
			c-1,1-1.5,2.1-1.5,3.5c0,0.8,0.1,1.6,0.4,2.4c0.2,0.8,0.5,1.5,0.7,2c0.2,0.5,0.6,1.1,1.1,1.9l0.2,0.3l-0.3,0.1
			c-1.9,1-3.4,2.1-4.5,3.2c-1,1-1.6,2.4-1.6,4C160.1,31.2,160.7,32.6,161.9,33.7z M166.3,14.5c0-1,0.3-1.7,1-2.3
			c0.6-0.6,1.4-0.9,2.3-0.9c0.9,0,1.6,0.4,2.2,1.2c0.5,0.7,0.8,1.6,0.8,2.6c0,1.5-0.3,2.6-1,3.5c-0.6,0.8-1.6,1.6-2.9,2.4l-0.3,0.2
			l-0.1-0.3C166.9,18.2,166.3,16.1,166.3,14.5z M163.3,26.2c0.4-0.8,0.9-1.3,1.4-1.7c0.4-0.4,1.1-0.9,2-1.5l0.3-0.2l1.2,1.8
			c0.7,1,1.5,2.3,2.5,3.7c1,1.4,1.9,2.5,2.6,3.2l0.2,0.2l-0.2,0.2c-0.6,0.7-1.4,1.2-2.3,1.6c-0.9,0.4-1.8,0.6-2.6,0.6
			c-1.6,0-2.9-0.5-4-1.3c-1.1-0.9-1.7-2.3-1.7-4.1C162.7,27.9,162.9,27,163.3,26.2z"/>
	</g>
	<g>
		<path class="st0" d="M156.5,24.4c0-0.1,0-0.2,0-0.2c-2.4,0.1-3.6,0.2-3.8,0.2c0,0-0.1,0-4.8-0.2c0,0.1,0,0.2,0,0.3
			c0,0.1,0,0.1,0,0.2c0.4,0,0.9,0.1,1.6,0.2c0.9,0.2,1.3,0.4,1.5,0.8c0.2,0.6,0.3,1.7,0.3,3.4v0.3l0,3.2c0,0.5-0.2,0.8-0.4,0.9
			c-1.1,0.6-2.8,0.9-5,0.9c-2.9,0-5.3-1.2-7.2-3.7c-1.9-2.5-2.8-5.2-2.8-8.1c0-3.1,0.9-5.9,2.6-8.1c1.7-2.3,3.9-3.4,6.5-3.4
			c4.6,0,7.2,1.8,8,5.5c0,0,0.1,0,0.2,0c0.5,0,0.5-0.2,0.5-0.3c0-0.2,0-1.8-0.1-4.6c-4-1.1-6.9-1.7-8.6-1.7c-3.4,0-6.2,1.3-8.6,3.8
			c-2.3,2.5-3.5,5.6-3.5,9.2c0,3.4,1.1,6.3,3.4,8.7c2.3,2.4,5,3.7,8.3,3.7c0.6,0,1.2,0,1.8-0.1c0.6,0,1.1-0.1,1.5-0.1
			c0.5,0,0.9-0.1,1.4-0.2l1.1-0.2c0.3-0.1,0.6-0.1,1-0.3c0.4-0.1,0.7-0.2,0.8-0.3c0.1-0.1,0.4-0.2,0.8-0.3c0.4-0.2,0.7-0.3,0.7-0.3
			c0.7-0.3,0.8-0.4,0.8-0.5c0,0,0-0.1-0.2-0.6c-0.2-0.5-0.3-1-0.3-1.5c0-0.1,0-0.4-0.1-1c0-0.7,0-1.3,0-1.8c0-2.2,0.2-2.6,0.5-2.8
			c0.3-0.2,0.7-0.3,1.2-0.5c0.5-0.2,0.8-0.2,1-0.3C156.5,24.6,156.5,24.5,156.5,24.4z"/>
	</g>
</g>
<g>
	<path class="st0" d="M135.2,45c-0.2,0-0.4,0-0.5-0.1l-0.3,0.3c0.1,0,0.1,0.1,0.2,0.1s0.2,0,0.3,0.1c0.1,0,0.3,0,0.6,0.1
		c0.5,0,0.8,0.1,1,0.3c0.2,0.2,0.3,0.4,0.3,0.7c0,0.2-0.1,0.4-0.2,0.6c-0.1,0.2-0.3,0.3-0.5,0.4c-0.2,0.1-0.5,0.2-0.9,0.2
		c-0.3,0-0.6,0-0.8-0.1c-0.2-0.1-0.4-0.2-0.6-0.4s-0.2-0.4-0.2-0.6c0-0.1,0-0.3,0.1-0.4c0.1-0.2,0.2-0.3,0.4-0.4
		c-0.1,0-0.2-0.1-0.3-0.1c-0.1,0-0.1-0.1-0.2-0.2v-0.2l0.6-0.6c-0.3-0.2-0.4-0.5-0.4-0.9c0-0.2,0.1-0.4,0.2-0.6
		c0.1-0.2,0.3-0.3,0.5-0.4c0.2-0.1,0.5-0.2,0.7-0.2c0.2,0,0.4,0,0.5,0.1h1.3V43l-0.6,0c0.1,0.2,0.2,0.4,0.2,0.7
		c0,0.2-0.1,0.4-0.2,0.6c-0.1,0.2-0.3,0.3-0.5,0.4S135.5,45,135.2,45z M134.2,46.5c0,0.2,0.1,0.4,0.3,0.5c0.2,0.1,0.4,0.2,0.7,0.2
		c0.3,0,0.5-0.1,0.7-0.2c0.2-0.1,0.3-0.3,0.3-0.5c0-0.1-0.1-0.3-0.2-0.4s-0.3-0.2-0.7-0.2c-0.3,0-0.5,0-0.7-0.1
		c-0.2,0.1-0.3,0.2-0.4,0.3C134.2,46.3,134.2,46.4,134.2,46.5z M135.2,44.5c0.2,0,0.4-0.1,0.6-0.2c0.1-0.1,0.2-0.3,0.2-0.6
		c0-0.2-0.1-0.4-0.2-0.5s-0.3-0.2-0.6-0.2c-0.2,0-0.4,0.1-0.6,0.2s-0.2,0.3-0.2,0.5c0,0.2,0.1,0.4,0.2,0.6
		C134.7,44.4,134.9,44.5,135.2,44.5z"/>
	<path class="st0" d="M138.8,46.1c-0.3,0-0.5,0-0.7-0.1s-0.3-0.2-0.4-0.4c-0.1-0.2-0.1-0.3-0.1-0.5c0-0.4,0.1-0.6,0.4-0.8
		c0.3-0.2,0.6-0.3,1.1-0.3h0.9v0c0-0.3-0.1-0.5-0.2-0.7c-0.2-0.2-0.4-0.2-0.6-0.2c-0.2,0-0.4,0.1-0.6,0.2s-0.3,0.3-0.3,0.5h-0.6
		c0-0.2,0.1-0.5,0.3-0.6s0.3-0.3,0.5-0.4c0.2-0.1,0.4-0.1,0.7-0.1c0.5,0,0.8,0.1,1.1,0.4c0.2,0.3,0.4,0.6,0.4,1V46H140l0-0.6
		c-0.1,0.2-0.2,0.4-0.4,0.5C139.4,46.1,139.1,46.1,138.8,46.1z M138.9,45.6c0.2,0,0.4-0.1,0.6-0.2c0.2-0.1,0.3-0.3,0.4-0.5
		c0.1-0.2,0.1-0.4,0.1-0.6v0h-0.9c-0.3,0-0.6,0.1-0.7,0.2c-0.1,0.1-0.2,0.3-0.2,0.4c0,0.2,0.1,0.3,0.2,0.4
		C138.5,45.6,138.7,45.6,138.9,45.6z"/>
	<path class="st0" d="M141.4,46v-3.4h0.5l0,0.7c0.1-0.2,0.3-0.4,0.5-0.5c0.2-0.1,0.5-0.2,0.8-0.2v0.6h-0.2c-0.2,0-0.4,0-0.6,0.1
		c-0.2,0.1-0.3,0.2-0.4,0.4S142,44,142,44.3V46H141.4z"/>
	<path class="st0" d="M145.4,46.1c-0.3,0-0.6-0.1-0.9-0.2c-0.3-0.2-0.5-0.4-0.6-0.6c-0.1-0.3-0.2-0.6-0.2-0.9s0.1-0.7,0.2-0.9
		c0.1-0.3,0.3-0.5,0.6-0.6c0.3-0.2,0.6-0.2,0.9-0.2c0.3,0,0.5,0.1,0.7,0.2c0.2,0.1,0.4,0.3,0.5,0.5V41h0.6v5h-0.5l-0.1-0.6
		c-0.1,0.2-0.3,0.3-0.5,0.5C145.9,46.1,145.7,46.1,145.4,46.1z M145.4,45.6c0.2,0,0.4-0.1,0.6-0.2s0.3-0.3,0.4-0.5s0.1-0.4,0.1-0.7
		c0-0.3,0-0.5-0.1-0.7s-0.2-0.3-0.4-0.5s-0.4-0.2-0.6-0.2c-0.2,0-0.4,0.1-0.6,0.2c-0.2,0.1-0.3,0.3-0.4,0.5
		c-0.1,0.2-0.1,0.4-0.1,0.7c0,0.3,0,0.5,0.1,0.7c0.1,0.2,0.2,0.3,0.4,0.5C145,45.6,145.2,45.6,145.4,45.6z"/>
	<path class="st0" d="M149.7,46.1c-0.3,0-0.6-0.1-0.9-0.2c-0.3-0.1-0.5-0.4-0.6-0.6c-0.1-0.3-0.2-0.6-0.2-1c0-0.4,0.1-0.7,0.2-0.9
		c0.1-0.3,0.3-0.5,0.6-0.6c0.3-0.1,0.6-0.2,0.9-0.2c0.3,0,0.6,0.1,0.9,0.2c0.2,0.2,0.4,0.3,0.6,0.6c0.1,0.2,0.2,0.5,0.2,0.8
		c0,0.1,0,0.1,0,0.2c0,0.1,0,0.1,0,0.2h-2.7c0,0.3,0.1,0.5,0.2,0.7c0.1,0.2,0.2,0.3,0.4,0.4s0.3,0.1,0.5,0.1c0.2,0,0.4-0.1,0.6-0.2
		c0.2-0.1,0.3-0.3,0.4-0.5h0.6c-0.1,0.3-0.3,0.6-0.5,0.8C150.4,46,150.1,46.1,149.7,46.1z M149.7,43c-0.3,0-0.5,0.1-0.7,0.3
		s-0.3,0.4-0.4,0.7h2.2c0-0.3-0.1-0.6-0.3-0.7C150.2,43.1,150,43,149.7,43z"/>
	<path class="st0" d="M152.1,46v-3.4h0.5l0,0.6c0.1-0.2,0.3-0.4,0.5-0.5c0.2-0.1,0.4-0.2,0.7-0.2c0.4,0,0.7,0.1,1,0.4
		c0.2,0.2,0.4,0.6,0.4,1.1v2h-0.6v-1.9c0-0.7-0.3-1.1-0.9-1.1c-0.3,0-0.5,0.1-0.7,0.3c-0.2,0.2-0.3,0.5-0.3,0.9V46H152.1z"/>
	<path class="st0" d="M157.2,46.1c-0.3,0-0.5,0-0.7-0.1s-0.3-0.2-0.4-0.4c-0.1-0.2-0.1-0.3-0.1-0.5c0-0.4,0.1-0.6,0.4-0.8
		c0.3-0.2,0.6-0.3,1.1-0.3h0.9v0c0-0.3-0.1-0.5-0.2-0.7c-0.2-0.2-0.4-0.2-0.6-0.2c-0.2,0-0.4,0.1-0.6,0.2s-0.3,0.3-0.3,0.5H156
		c0-0.2,0.1-0.5,0.3-0.6s0.3-0.3,0.5-0.4c0.2-0.1,0.4-0.1,0.7-0.1c0.5,0,0.8,0.1,1.1,0.4c0.2,0.3,0.4,0.6,0.4,1V46h-0.5l0-0.6
		c-0.1,0.2-0.2,0.4-0.4,0.5C157.8,46.1,157.5,46.1,157.2,46.1z M157.3,45.6c0.2,0,0.4-0.1,0.6-0.2c0.2-0.1,0.3-0.3,0.4-0.5
		c0.1-0.2,0.1-0.4,0.1-0.6v0h-0.9c-0.3,0-0.6,0.1-0.7,0.2c-0.1,0.1-0.2,0.3-0.2,0.4c0,0.2,0.1,0.3,0.2,0.4
		C156.9,45.6,157.1,45.6,157.3,45.6z"/>
	<path class="st0" d="M159.8,46v-3.4h0.5l0,0.6c0.1-0.2,0.3-0.4,0.5-0.5c0.2-0.1,0.4-0.2,0.7-0.2c0.4,0,0.7,0.1,1,0.4
		c0.2,0.2,0.4,0.6,0.4,1.1v2h-0.6v-1.9c0-0.7-0.3-1.1-0.9-1.1c-0.3,0-0.5,0.1-0.7,0.3c-0.2,0.2-0.3,0.5-0.3,0.9V46H159.8z"/>
	<path class="st0" d="M165.3,46.1c-0.3,0-0.6-0.1-0.9-0.2s-0.5-0.4-0.6-0.6c-0.1-0.3-0.2-0.6-0.2-0.9s0.1-0.7,0.2-0.9
		s0.3-0.5,0.6-0.6c0.3-0.2,0.6-0.2,0.9-0.2c0.3,0,0.5,0.1,0.7,0.2c0.2,0.1,0.4,0.3,0.5,0.5V41h0.6v5h-0.5l-0.1-0.6
		c-0.1,0.2-0.3,0.3-0.5,0.5C165.9,46.1,165.6,46.1,165.3,46.1z M165.4,45.6c0.2,0,0.4-0.1,0.6-0.2c0.2-0.1,0.3-0.3,0.4-0.5
		c0.1-0.2,0.1-0.4,0.1-0.7c0-0.3,0-0.5-0.1-0.7c-0.1-0.2-0.2-0.3-0.4-0.5c-0.2-0.1-0.4-0.2-0.6-0.2c-0.2,0-0.4,0.1-0.6,0.2
		s-0.3,0.3-0.4,0.5s-0.1,0.4-0.1,0.7c0,0.3,0,0.5,0.1,0.7s0.2,0.3,0.4,0.5S165.2,45.6,165.4,45.6z"/>
	<path class="st0" d="M168.3,46v-2.9h-0.5v-0.5h0.5V42c0-0.3,0.1-0.6,0.2-0.7s0.4-0.2,0.7-0.2h0.3v0.5h-0.3c-0.2,0-0.3,0-0.4,0.1
		c-0.1,0.1-0.1,0.2-0.1,0.4v0.6h0.8v0.5h-0.8V46H168.3z M170.4,46v-5h0.6v5H170.4z"/>
	<path class="st0" d="M173.5,46.1c-0.3,0-0.6-0.1-0.9-0.2s-0.5-0.4-0.6-0.6c-0.1-0.3-0.2-0.6-0.2-1c0-0.4,0.1-0.7,0.2-1
		c0.2-0.3,0.4-0.5,0.6-0.6c0.3-0.1,0.6-0.2,0.9-0.2c0.3,0,0.6,0.1,0.9,0.2s0.5,0.4,0.6,0.6c0.2,0.3,0.2,0.6,0.2,1
		c0,0.4-0.1,0.7-0.2,1c-0.2,0.3-0.4,0.5-0.6,0.6C174.2,46,173.9,46.1,173.5,46.1z M173.5,45.6c0.2,0,0.4,0,0.6-0.1s0.3-0.2,0.4-0.4
		s0.2-0.4,0.2-0.7c0-0.3-0.1-0.5-0.2-0.7c-0.1-0.2-0.2-0.3-0.4-0.4s-0.4-0.1-0.5-0.1c-0.2,0-0.4,0-0.6,0.1s-0.3,0.2-0.4,0.4
		c-0.1,0.2-0.2,0.4-0.2,0.7c0,0.3,0.1,0.5,0.2,0.7c0.1,0.2,0.2,0.3,0.4,0.4S173.3,45.6,173.5,45.6z"/>
	<path class="st0" d="M176.6,46l-1-3.4h0.6l0.7,2.7l0.8-2.7h0.7l0.8,2.7l0.7-2.7h0.6l-1,3.4h-0.6l-0.8-2.8l-0.8,2.8H176.6z"/>
	<path class="st0" d="M182.6,46.1c-0.3,0-0.6-0.1-0.9-0.2c-0.3-0.1-0.5-0.4-0.6-0.6c-0.1-0.3-0.2-0.6-0.2-1c0-0.4,0.1-0.7,0.2-0.9
		c0.1-0.3,0.3-0.5,0.6-0.6c0.3-0.1,0.6-0.2,0.9-0.2c0.3,0,0.6,0.1,0.9,0.2c0.2,0.2,0.4,0.3,0.6,0.6c0.1,0.2,0.2,0.5,0.2,0.8
		c0,0.1,0,0.1,0,0.2c0,0.1,0,0.1,0,0.2h-2.7c0,0.3,0.1,0.5,0.2,0.7c0.1,0.2,0.2,0.3,0.4,0.4s0.3,0.1,0.5,0.1c0.2,0,0.4-0.1,0.6-0.2
		c0.2-0.1,0.3-0.3,0.4-0.5h0.6c-0.1,0.3-0.3,0.6-0.5,0.8C183.3,46,183,46.1,182.6,46.1z M182.6,43c-0.3,0-0.5,0.1-0.7,0.3
		s-0.3,0.4-0.4,0.7h2.2c0-0.3-0.1-0.6-0.3-0.7C183.1,43.1,182.9,43,182.6,43z"/>
	<path class="st0" d="M185,46v-3.4h0.5l0,0.7c0.1-0.2,0.3-0.4,0.5-0.5c0.2-0.1,0.5-0.2,0.8-0.2v0.6h-0.2c-0.2,0-0.4,0-0.6,0.1
		c-0.2,0.1-0.3,0.2-0.4,0.4s-0.2,0.4-0.2,0.7V46H185z"/>
	<path class="st0" d="M187.4,46.1c-0.1,0-0.2,0-0.3-0.1s-0.1-0.2-0.1-0.3c0-0.1,0-0.2,0.1-0.3s0.2-0.1,0.3-0.1c0.1,0,0.2,0,0.3,0.1
		s0.1,0.2,0.1,0.3c0,0.1,0,0.2-0.1,0.3S187.5,46.1,187.4,46.1z"/>
	<path class="st0" d="M190.2,46.1c-0.3,0-0.6-0.1-0.9-0.2c-0.3-0.1-0.5-0.4-0.6-0.6c-0.1-0.3-0.2-0.6-0.2-0.9c0-0.4,0.1-0.7,0.2-0.9
		c0.2-0.3,0.4-0.5,0.6-0.6c0.3-0.1,0.6-0.2,0.9-0.2c0.4,0,0.8,0.1,1,0.3c0.3,0.2,0.5,0.5,0.5,0.9h-0.6c0-0.2-0.2-0.4-0.3-0.5
		c-0.2-0.1-0.4-0.2-0.6-0.2c-0.2,0-0.4,0-0.5,0.1s-0.3,0.2-0.4,0.4c-0.1,0.2-0.2,0.4-0.2,0.7c0,0.3,0.1,0.5,0.2,0.7
		c0.1,0.2,0.2,0.3,0.4,0.4c0.2,0.1,0.4,0.1,0.5,0.1c0.2,0,0.5-0.1,0.6-0.2c0.2-0.1,0.3-0.3,0.3-0.5h0.6c-0.1,0.3-0.2,0.6-0.5,0.8
		C190.9,46,190.6,46.1,190.2,46.1z"/>
	<path class="st0" d="M194.1,46.1c-0.3,0-0.6-0.1-0.9-0.2s-0.5-0.4-0.6-0.6c-0.1-0.3-0.2-0.6-0.2-1c0-0.4,0.1-0.7,0.2-1
		c0.2-0.3,0.4-0.5,0.6-0.6c0.3-0.1,0.6-0.2,0.9-0.2c0.3,0,0.6,0.1,0.9,0.2s0.5,0.4,0.6,0.6c0.2,0.3,0.2,0.6,0.2,1
		c0,0.4-0.1,0.7-0.2,1c-0.2,0.3-0.4,0.5-0.6,0.6C194.7,46,194.4,46.1,194.1,46.1z M194.1,45.6c0.2,0,0.4,0,0.6-0.1s0.3-0.2,0.4-0.4
		s0.2-0.4,0.2-0.7c0-0.3-0.1-0.5-0.2-0.7c-0.1-0.2-0.2-0.3-0.4-0.4s-0.4-0.1-0.5-0.1c-0.2,0-0.4,0-0.6,0.1s-0.3,0.2-0.4,0.4
		c-0.1,0.2-0.2,0.4-0.2,0.7c0,0.3,0.1,0.5,0.2,0.7c0.1,0.2,0.2,0.3,0.4,0.4S193.9,45.6,194.1,45.6z"/>
	<path class="st0" d="M196.6,46v-3.4h0.5l0,0.5c0.1-0.2,0.3-0.3,0.4-0.4s0.4-0.2,0.6-0.2c0.3,0,0.5,0.1,0.7,0.2
		c0.2,0.1,0.3,0.3,0.5,0.5c0.1-0.2,0.3-0.4,0.5-0.5c0.2-0.1,0.4-0.2,0.7-0.2c0.4,0,0.7,0.1,1,0.4c0.2,0.2,0.4,0.6,0.4,1.1v2h-0.6
		v-1.9c0-0.4-0.1-0.6-0.2-0.8c-0.1-0.2-0.3-0.3-0.6-0.3c-0.3,0-0.5,0.1-0.7,0.3s-0.3,0.5-0.3,0.9V46H199v-1.9c0-0.4-0.1-0.6-0.2-0.8
		c-0.1-0.2-0.3-0.3-0.6-0.3c-0.3,0-0.5,0.1-0.7,0.3c-0.2,0.2-0.3,0.5-0.3,0.9V46H196.6z"/>
</g>
<g>
	<rect x="0.5" y="66.5" class="st0" width="101" height="55"/>
	<path d="M101,67v54H1V67H101 M102,66H0v56h102V66L102,66z"/>
</g>
<g>
	<path d="M85.1,81.9c0,0,0,0,0.2,0c0.2,0,0.3,0,0.3,0c-0.1-0.4-0.2-1.1-0.5-2.1c-0.2-1.1-0.4-2-0.5-2.7c-1.4,0-3.4,0.1-6,0.2
		c-2.8,0.1-4.8,0.2-5.9,0.2c-1.6,0-3,0-4.3-0.1c0,0.1,0,0.2,0,0.3c0,0.1,0,0.1,0,0.2c0.3,0,0.8,0.1,1.4,0.3c0.8,0.2,1.2,0.5,1.3,0.8
		c0.2,0.8,0.3,1.9,0.3,3.4v14.9c0,1.7-0.1,2.8-0.3,3.6c-0.1,0.3-0.5,0.6-1.3,0.8c-0.6,0.1-1,0.2-1.3,0.2c0,0.1,0,0.1,0,0.2
		c0,0.1,0,0.2,0,0.3c4.2-0.2,4.3-0.2,4.3-0.2c0.4,0,1.8,0.1,4.1,0.2c0-0.1,0-0.1,0-0.2c0-0.1,0-0.2,0-0.3c-0.3,0-0.7-0.1-1.3-0.2
		c-0.8-0.2-1.2-0.4-1.3-0.8c-0.2-0.9-0.4-2.2-0.4-3.7v-6.1c0-0.4,0.4-0.6,3-0.6c3.2,0,3.9,0.2,4.2,0.4c0.2,0.1,0.3,0.2,0.4,0.3
		c0.1,0.1,0.2,0.3,0.4,0.7c0.1,0.3,0.3,0.9,0.5,1.6c0,0,0.1,0.1,0.3,0.1c0.1,0,0.2,0,0.3,0v-7.2c-0.1,0-0.2,0-0.3,0
		c-0.2,0-0.3,0-0.3,0c0,0.1,0,0.2-0.1,0.3c-0.3,1.3-0.7,2-1.1,2.3c-0.3,0.2-0.9,0.4-3.3,0.4h-2c-1.4,0-1.9-0.1-1.9-0.5v-6.3
		c0-1.6,0.1-2.7,0.2-3.3c0.1-0.5,0.7-0.7,3.6-0.7h2.5c1.2,0,2.2,0.2,2.9,0.7C84.1,79.4,84.7,80.4,85.1,81.9z"/>
	<path d="M45.5,100.6c1.3,1.1,3,1.6,5.2,1.6c2.3,0,4.6-0.9,6.7-2.8l0.2-0.2l0.8,0.9c0.4,0.4,0.9,0.9,1.6,1.3
		c1.4,0.9,2.7,0.7,3.6,0.3c0.5-0.2,0.9-0.5,1.2-0.9c0.3-0.4,0.5-0.7,0.7-0.9c0.1-0.2,0.2-0.3,0.3-0.5c0,0-0.1-0.1-0.2-0.2
		c-0.1-0.1-0.1-0.1-0.2-0.1c-0.2,0.3-0.4,0.6-0.8,1c-0.7,0.8-1.5,0.9-2.1,0.6c-0.3-0.2-0.6-0.4-1-0.7c-0.4-0.4-0.7-0.7-0.9-0.9
		c-0.2-0.2-0.6-0.7-1.2-1.3L59,97.7l0.2-0.2c0.7-0.8,1.3-1.7,1.9-2.6c0.6-0.9,1.1-1.7,1.4-2.2c0.5-0.9,0.5-0.9,0.6-0.9l0.1,0
		c0.2-0.1,0.7-0.3,1.3-0.5c0.6-0.1,1-0.2,1.4-0.2c0,0,0-0.1,0-0.3c0-0.1,0-0.2,0-0.2c-0.4,0-0.8,0-1.4,0.1c-0.6,0-1,0.1-1.5,0.1
		c-0.4,0-0.8,0-1.2,0h-2.8c0,0,0,0.1,0,0.1c0,0.1,0,0.2,0,0.2c0.1,0,0.2,0,0.3,0c0.3,0,0.6,0.1,0.9,0.2c0.3,0.1,0.6,0.4,0.6,0.7
		c0,0.2-0.1,0.6-0.6,1.8c-0.4,0.9-0.9,1.9-1.6,2.9L58.4,97l-0.3-0.3c-2.3-2.6-4.2-5.2-5.6-7.7l-0.1-0.2l0.2-0.2
		c1.8-1.1,3.1-2.2,4.1-3.3c0.9-1,1.4-2.3,1.4-3.8c0-1.3-0.4-2.2-1.4-2.9c-0.9-0.7-2.2-1.1-3.8-1.1c-1.5,0-2.8,0.5-3.7,1.5
		c-1,1-1.5,2.1-1.5,3.5c0,0.8,0.1,1.6,0.4,2.4c0.2,0.8,0.5,1.5,0.7,2c0.2,0.5,0.6,1.1,1.1,1.9L50,89l-0.3,0.1
		c-1.9,1-3.4,2.1-4.5,3.2c-1,1-1.6,2.4-1.6,4C43.6,98.2,44.2,99.6,45.5,100.6z M49.9,81.4c0-1,0.3-1.7,1-2.3
		c0.6-0.6,1.4-0.9,2.3-0.9c0.9,0,1.6,0.4,2.2,1.2c0.5,0.7,0.8,1.6,0.8,2.6c0,1.5-0.3,2.6-1,3.5c-0.6,0.8-1.6,1.6-2.9,2.4L52,88
		l-0.1-0.3C50.5,85.2,49.9,83.1,49.9,81.4z M46.9,93.2c0.4-0.8,0.9-1.3,1.4-1.7c0.4-0.4,1.1-0.9,2-1.5l0.3-0.2l1.2,1.8
		c0.7,1,1.5,2.3,2.5,3.7c1,1.4,1.9,2.5,2.6,3.2l0.2,0.2l-0.2,0.2c-0.6,0.7-1.4,1.2-2.3,1.6c-0.9,0.4-1.8,0.6-2.6,0.6
		c-1.6,0-2.9-0.5-4-1.3c-1.1-0.9-1.7-2.3-1.7-4.1C46.3,94.8,46.5,94,46.9,93.2z"/>
	<path d="M40.1,91.4c0-0.1,0-0.2,0-0.2c-2.4,0.1-3.6,0.2-3.8,0.2c0,0-0.1,0-4.8-0.2c0,0.1,0,0.2,0,0.3c0,0.1,0,0.1,0,0.2
		c0.4,0,0.9,0.1,1.6,0.2c0.9,0.2,1.3,0.4,1.5,0.8c0.2,0.6,0.3,1.7,0.3,3.4v0.3l0,3.2c0,0.5-0.2,0.8-0.4,0.9c-1.1,0.6-2.8,0.9-5,0.9
		c-2.9,0-5.3-1.2-7.2-3.7c-1.9-2.5-2.8-5.2-2.8-8.1c0-3.1,0.9-5.9,2.6-8.1c1.7-2.3,3.9-3.4,6.5-3.4c4.6,0,7.2,1.8,8,5.5
		c0,0,0.1,0,0.2,0c0.5,0,0.5-0.2,0.5-0.3c0-0.2,0-1.8-0.1-4.6c-4-1.1-6.9-1.7-8.6-1.7c-3.4,0-6.2,1.3-8.6,3.8
		c-2.3,2.5-3.5,5.6-3.5,9.2c0,3.4,1.1,6.3,3.4,8.7c2.3,2.4,5,3.7,8.3,3.7c0.6,0,1.2,0,1.8-0.1c0.6,0,1.1-0.1,1.5-0.1
		c0.5,0,0.9-0.1,1.4-0.2l1.1-0.2c0.3-0.1,0.6-0.1,1-0.3c0.4-0.1,0.7-0.2,0.8-0.3c0.1-0.1,0.4-0.2,0.8-0.3c0.4-0.2,0.7-0.3,0.7-0.3
		c0.7-0.3,0.8-0.4,0.8-0.5c0,0,0-0.1-0.2-0.6c-0.2-0.5-0.3-1-0.3-1.5c0-0.1,0-0.4-0.1-1c0-0.7,0-1.3,0-1.8c0-2.2,0.2-2.6,0.5-2.8
		c0.3-0.2,0.7-0.3,1.2-0.5c0.5-0.2,0.8-0.2,1-0.3C40.1,91.6,40.1,91.5,40.1,91.4z"/>
</g>
<text transform="matrix(1 0 0 1 17.6411 112.1945)" style="font-family:'DMSans-Regular'; font-size:5.955px;">by Dr. Debjani Majumdar</text>
<g>
	<rect x="0.5" y="0.5" class="st0" width="101" height="55"/>
	<path d="M101,1v54H1V1H101 M102,0H0v56h102V0L102,0z"/>
</g>
<g>
	<path d="M85.1,14.9c0,0,0,0,0.2,0c0.2,0,0.3,0,0.3,0c-0.1-0.4-0.2-1.1-0.5-2.1c-0.2-1.1-0.4-2-0.5-2.7c-1.4,0-3.4,0.1-6,0.2
		c-2.8,0.1-4.8,0.2-5.9,0.2c-1.6,0-3,0-4.3-0.1c0,0.1,0,0.2,0,0.3c0,0.1,0,0.1,0,0.2c0.3,0,0.8,0.1,1.4,0.3c0.8,0.2,1.2,0.5,1.3,0.8
		c0.2,0.8,0.3,1.9,0.3,3.4v14.9c0,1.7-0.1,2.8-0.3,3.6c-0.1,0.3-0.5,0.6-1.3,0.8c-0.6,0.1-1,0.2-1.3,0.2c0,0.1,0,0.1,0,0.2
		c0,0.1,0,0.2,0,0.3c4.2-0.2,4.3-0.2,4.3-0.2c0.4,0,1.8,0.1,4.1,0.2c0-0.1,0-0.1,0-0.2c0-0.1,0-0.2,0-0.3c-0.3,0-0.7-0.1-1.3-0.2
		c-0.8-0.2-1.2-0.4-1.3-0.8c-0.2-0.9-0.4-2.2-0.4-3.7V24c0-0.4,0.4-0.6,3-0.6c3.2,0,3.9,0.2,4.2,0.4c0.2,0.1,0.3,0.2,0.4,0.3
		c0.1,0.1,0.2,0.3,0.4,0.7c0.1,0.3,0.3,0.9,0.5,1.6c0,0,0.1,0.1,0.3,0.1c0.1,0,0.2,0,0.3,0v-7.2c-0.1,0-0.2,0-0.3,0
		c-0.2,0-0.3,0-0.3,0c0,0.1,0,0.2-0.1,0.3c-0.3,1.3-0.7,2-1.1,2.3c-0.3,0.2-0.9,0.4-3.3,0.4h-2c-1.4,0-1.9-0.1-1.9-0.5v-6.3
		c0-1.6,0.1-2.7,0.2-3.3c0.1-0.5,0.7-0.7,3.6-0.7h2.5c1.2,0,2.2,0.2,2.9,0.7C84.1,12.4,84.7,13.4,85.1,14.9z"/>
	<path d="M45.5,33.7c1.3,1.1,3,1.6,5.2,1.6c2.3,0,4.6-0.9,6.7-2.8l0.2-0.2l0.8,0.9c0.4,0.4,0.9,0.9,1.6,1.3c1.4,0.9,2.7,0.7,3.6,0.3
		c0.5-0.2,0.9-0.5,1.2-0.9c0.3-0.4,0.5-0.7,0.7-0.9c0.1-0.2,0.2-0.3,0.3-0.5c0,0-0.1-0.1-0.2-0.2c-0.1-0.1-0.1-0.1-0.2-0.1
		c-0.2,0.3-0.4,0.6-0.8,1c-0.7,0.8-1.5,0.9-2.1,0.6c-0.3-0.2-0.6-0.4-1-0.7c-0.4-0.4-0.7-0.7-0.9-0.9c-0.2-0.2-0.6-0.7-1.2-1.3
		L59,30.7l0.2-0.2c0.7-0.8,1.3-1.7,1.9-2.6c0.6-0.9,1.1-1.7,1.4-2.2c0.5-0.9,0.5-0.9,0.6-0.9l0.1,0c0.2-0.1,0.7-0.3,1.3-0.5
		c0.6-0.1,1-0.2,1.4-0.2c0,0,0-0.1,0-0.3c0-0.1,0-0.2,0-0.2c-0.4,0-0.8,0-1.4,0.1c-0.6,0-1,0.1-1.5,0.1c-0.4,0-0.8,0-1.2,0h-2.8
		c0,0,0,0.1,0,0.1c0,0.1,0,0.2,0,0.2c0.1,0,0.2,0,0.3,0c0.3,0,0.6,0.1,0.9,0.2c0.3,0.1,0.6,0.4,0.6,0.7c0,0.2-0.1,0.6-0.6,1.8
		c-0.4,0.9-0.9,1.9-1.6,2.9L58.4,30l-0.3-0.3c-2.3-2.6-4.2-5.2-5.6-7.7l-0.1-0.2l0.2-0.2c1.8-1.1,3.1-2.2,4.1-3.3
		c0.9-1,1.4-2.3,1.4-3.8c0-1.3-0.4-2.2-1.4-2.9c-0.9-0.7-2.2-1.1-3.8-1.1c-1.5,0-2.8,0.5-3.7,1.5c-1,1-1.5,2.1-1.5,3.5
		c0,0.8,0.1,1.6,0.4,2.4c0.2,0.8,0.5,1.5,0.7,2c0.2,0.5,0.6,1.1,1.1,1.9L50,22l-0.3,0.1c-1.9,1-3.4,2.1-4.5,3.2c-1,1-1.6,2.4-1.6,4
		C43.6,31.2,44.2,32.6,45.5,33.7z M49.9,14.5c0-1,0.3-1.7,1-2.3c0.6-0.6,1.4-0.9,2.3-0.9c0.9,0,1.6,0.4,2.2,1.2
		c0.5,0.7,0.8,1.6,0.8,2.6c0,1.5-0.3,2.6-1,3.5c-0.6,0.8-1.6,1.6-2.9,2.4L52,21l-0.1-0.3C50.5,18.2,49.9,16.1,49.9,14.5z M46.9,26.2
		c0.4-0.8,0.9-1.3,1.4-1.7c0.4-0.4,1.1-0.9,2-1.5l0.3-0.2l1.2,1.8c0.7,1,1.5,2.3,2.5,3.7c1,1.4,1.9,2.5,2.6,3.2l0.2,0.2L56.9,32
		c-0.6,0.7-1.4,1.2-2.3,1.6c-0.9,0.4-1.8,0.6-2.6,0.6c-1.6,0-2.9-0.5-4-1.3c-1.1-0.9-1.7-2.3-1.7-4.1C46.3,27.9,46.5,27,46.9,26.2z"
		/>
	<path d="M40.1,24.4c0-0.1,0-0.2,0-0.2c-2.4,0.1-3.6,0.2-3.8,0.2c0,0-0.1,0-4.8-0.2c0,0.1,0,0.2,0,0.3c0,0.1,0,0.1,0,0.2
		c0.4,0,0.9,0.1,1.6,0.2c0.9,0.2,1.3,0.4,1.5,0.8c0.2,0.6,0.3,1.7,0.3,3.4v0.3l0,3.2c0,0.5-0.2,0.8-0.4,0.9c-1.1,0.6-2.8,0.9-5,0.9
		c-2.9,0-5.3-1.2-7.2-3.7c-1.9-2.5-2.8-5.2-2.8-8.1c0-3.1,0.9-5.9,2.6-8.1c1.7-2.3,3.9-3.4,6.5-3.4c4.6,0,7.2,1.8,8,5.5
		c0,0,0.1,0,0.2,0c0.5,0,0.5-0.2,0.5-0.3c0-0.2,0-1.8-0.1-4.6c-4-1.1-6.9-1.7-8.6-1.7c-3.4,0-6.2,1.3-8.6,3.8
		c-2.3,2.5-3.5,5.6-3.5,9.2c0,3.4,1.1,6.3,3.4,8.7c2.3,2.4,5,3.7,8.3,3.7c0.6,0,1.2,0,1.8-0.1c0.6,0,1.1-0.1,1.5-0.1
		c0.5,0,0.9-0.1,1.4-0.2l1.1-0.2c0.3-0.1,0.6-0.1,1-0.3c0.4-0.1,0.7-0.2,0.8-0.3c0.1-0.1,0.4-0.2,0.8-0.3c0.4-0.2,0.7-0.3,0.7-0.3
		c0.7-0.3,0.8-0.4,0.8-0.5c0,0,0-0.1-0.2-0.6c-0.2-0.5-0.3-1-0.3-1.5c0-0.1,0-0.4-0.1-1c0-0.7,0-1.3,0-1.8c0-2.2,0.2-2.6,0.5-2.8
		c0.3-0.2,0.7-0.3,1.2-0.5c0.5-0.2,0.8-0.2,1-0.3C40.1,24.6,40.1,24.5,40.1,24.4z"/>
</g>
<g>
	<path d="M18.8,45c-0.2,0-0.4,0-0.5-0.1l-0.3,0.3c0.1,0,0.1,0.1,0.2,0.1s0.2,0,0.3,0.1s0.3,0,0.6,0.1c0.5,0,0.8,0.1,1,0.3
		c0.2,0.2,0.3,0.4,0.3,0.7c0,0.2-0.1,0.4-0.2,0.6c-0.1,0.2-0.3,0.3-0.5,0.4c-0.2,0.1-0.5,0.2-0.9,0.2c-0.3,0-0.6,0-0.8-0.1
		c-0.2-0.1-0.4-0.2-0.6-0.4c-0.1-0.2-0.2-0.4-0.2-0.6c0-0.1,0-0.3,0.1-0.4c0.1-0.2,0.2-0.3,0.4-0.4c-0.1,0-0.2-0.1-0.3-0.1
		c-0.1,0-0.1-0.1-0.2-0.2v-0.2l0.6-0.6c-0.3-0.2-0.4-0.5-0.4-0.9c0-0.2,0.1-0.4,0.2-0.6c0.1-0.2,0.3-0.3,0.5-0.4
		c0.2-0.1,0.5-0.2,0.7-0.2c0.2,0,0.4,0,0.5,0.1h1.3V43l-0.6,0c0.1,0.2,0.2,0.4,0.2,0.7c0,0.2-0.1,0.4-0.2,0.6
		c-0.1,0.2-0.3,0.3-0.5,0.4C19.3,44.9,19.1,45,18.8,45z M17.8,46.5c0,0.2,0.1,0.4,0.3,0.5c0.2,0.1,0.4,0.2,0.7,0.2
		c0.3,0,0.5-0.1,0.7-0.2c0.2-0.1,0.3-0.3,0.3-0.5c0-0.1-0.1-0.3-0.2-0.4c-0.1-0.1-0.3-0.2-0.7-0.2c-0.3,0-0.5,0-0.7-0.1
		c-0.2,0.1-0.3,0.2-0.4,0.3C17.8,46.3,17.8,46.4,17.8,46.5z M18.8,44.5c0.2,0,0.4-0.1,0.6-0.2c0.1-0.1,0.2-0.3,0.2-0.6
		c0-0.2-0.1-0.4-0.2-0.5S19,43,18.8,43c-0.2,0-0.4,0.1-0.6,0.2C18,43.3,18,43.5,18,43.7c0,0.2,0.1,0.4,0.2,0.6
		C18.3,44.4,18.5,44.5,18.8,44.5z"/>
	<path d="M22.4,46.1c-0.3,0-0.5,0-0.7-0.1s-0.3-0.2-0.4-0.4c-0.1-0.2-0.1-0.3-0.1-0.5c0-0.4,0.1-0.6,0.4-0.8
		c0.3-0.2,0.6-0.3,1.1-0.3h0.9v0c0-0.3-0.1-0.5-0.2-0.7c-0.2-0.2-0.4-0.2-0.6-0.2c-0.2,0-0.4,0.1-0.6,0.2s-0.3,0.3-0.3,0.5h-0.6
		c0-0.2,0.1-0.5,0.3-0.6s0.3-0.3,0.5-0.4c0.2-0.1,0.4-0.1,0.7-0.1c0.5,0,0.8,0.1,1.1,0.4c0.2,0.3,0.4,0.6,0.4,1V46h-0.5l0-0.6
		c-0.1,0.2-0.2,0.4-0.4,0.5C22.9,46.1,22.7,46.1,22.4,46.1z M22.5,45.6c0.2,0,0.4-0.1,0.6-0.2c0.2-0.1,0.3-0.3,0.4-0.5
		c0.1-0.2,0.1-0.4,0.1-0.6v0h-0.9c-0.3,0-0.6,0.1-0.7,0.2s-0.2,0.3-0.2,0.4c0,0.2,0.1,0.3,0.2,0.4C22,45.6,22.2,45.6,22.5,45.6z"/>
	<path d="M25,46v-3.4h0.5l0,0.7c0.1-0.2,0.3-0.4,0.5-0.5c0.2-0.1,0.5-0.2,0.8-0.2v0.6h-0.2c-0.2,0-0.4,0-0.6,0.1
		c-0.2,0.1-0.3,0.2-0.4,0.4c-0.1,0.2-0.2,0.4-0.2,0.7V46H25z"/>
	<path d="M28.9,46.1c-0.3,0-0.6-0.1-0.9-0.2c-0.3-0.2-0.5-0.4-0.6-0.6c-0.1-0.3-0.2-0.6-0.2-0.9s0.1-0.7,0.2-0.9
		c0.1-0.3,0.3-0.5,0.6-0.6c0.3-0.2,0.6-0.2,0.9-0.2c0.3,0,0.5,0.1,0.7,0.2c0.2,0.1,0.4,0.3,0.5,0.5V41h0.6v5h-0.5l-0.1-0.6
		c-0.1,0.2-0.3,0.3-0.5,0.5C29.5,46.1,29.2,46.1,28.9,46.1z M29,45.6c0.2,0,0.4-0.1,0.6-0.2c0.2-0.1,0.3-0.3,0.4-0.5
		c0.1-0.2,0.1-0.4,0.1-0.7c0-0.3,0-0.5-0.1-0.7c-0.1-0.2-0.2-0.3-0.4-0.5C29.4,43.1,29.2,43,29,43c-0.2,0-0.4,0.1-0.6,0.2
		c-0.2,0.1-0.3,0.3-0.4,0.5c-0.1,0.2-0.1,0.4-0.1,0.7c0,0.3,0,0.5,0.1,0.7c0.1,0.2,0.2,0.3,0.4,0.5C28.6,45.6,28.8,45.6,29,45.6z"/>
	<path d="M33.3,46.1c-0.3,0-0.6-0.1-0.9-0.2c-0.3-0.1-0.5-0.4-0.6-0.6c-0.1-0.3-0.2-0.6-0.2-1c0-0.4,0.1-0.7,0.2-0.9
		c0.1-0.3,0.3-0.5,0.6-0.6c0.3-0.1,0.6-0.2,0.9-0.2c0.3,0,0.6,0.1,0.9,0.2c0.2,0.2,0.4,0.3,0.6,0.6c0.1,0.2,0.2,0.5,0.2,0.8
		c0,0.1,0,0.1,0,0.2s0,0.1,0,0.2h-2.7c0,0.3,0.1,0.5,0.2,0.7c0.1,0.2,0.2,0.3,0.4,0.4s0.3,0.1,0.5,0.1c0.2,0,0.4-0.1,0.6-0.2
		c0.2-0.1,0.3-0.3,0.4-0.5h0.6c-0.1,0.3-0.3,0.6-0.5,0.8C34,46,33.7,46.1,33.3,46.1z M33.3,43c-0.3,0-0.5,0.1-0.7,0.3
		s-0.3,0.4-0.4,0.7h2.2c0-0.3-0.1-0.6-0.3-0.7C33.8,43.1,33.6,43,33.3,43z"/>
	<path d="M35.7,46v-3.4h0.5l0,0.6c0.1-0.2,0.3-0.4,0.5-0.5c0.2-0.1,0.4-0.2,0.7-0.2c0.4,0,0.7,0.1,1,0.4c0.2,0.2,0.4,0.6,0.4,1.1v2
		h-0.6v-1.9c0-0.7-0.3-1.1-0.9-1.1c-0.3,0-0.5,0.1-0.7,0.3c-0.2,0.2-0.3,0.5-0.3,0.9V46H35.7z"/>
	<path d="M40.8,46.1c-0.3,0-0.5,0-0.7-0.1s-0.3-0.2-0.4-0.4c-0.1-0.2-0.1-0.3-0.1-0.5c0-0.4,0.1-0.6,0.4-0.8
		c0.3-0.2,0.6-0.3,1.1-0.3h0.9v0c0-0.3-0.1-0.5-0.2-0.7c-0.2-0.2-0.4-0.2-0.6-0.2c-0.2,0-0.4,0.1-0.6,0.2s-0.3,0.3-0.3,0.5h-0.6
		c0-0.2,0.1-0.5,0.3-0.6s0.3-0.3,0.5-0.4c0.2-0.1,0.4-0.1,0.7-0.1c0.5,0,0.8,0.1,1.1,0.4c0.2,0.3,0.4,0.6,0.4,1V46H42l0-0.6
		c-0.1,0.2-0.2,0.4-0.4,0.5C41.3,46.1,41.1,46.1,40.8,46.1z M40.9,45.6c0.2,0,0.4-0.1,0.6-0.2c0.2-0.1,0.3-0.3,0.4-0.5
		c0.1-0.2,0.1-0.4,0.1-0.6v0H41c-0.3,0-0.6,0.1-0.7,0.2s-0.2,0.3-0.2,0.4c0,0.2,0.1,0.3,0.2,0.4C40.4,45.6,40.6,45.6,40.9,45.6z"/>
	<path d="M43.4,46v-3.4h0.5l0,0.6c0.1-0.2,0.3-0.4,0.5-0.5c0.2-0.1,0.4-0.2,0.7-0.2c0.4,0,0.7,0.1,1,0.4c0.2,0.2,0.4,0.6,0.4,1.1v2
		h-0.6v-1.9c0-0.7-0.3-1.1-0.9-1.1c-0.3,0-0.5,0.1-0.7,0.3c-0.2,0.2-0.3,0.5-0.3,0.9V46H43.4z"/>
	<path d="M48.9,46.1c-0.3,0-0.6-0.1-0.9-0.2c-0.3-0.2-0.5-0.4-0.6-0.6c-0.1-0.3-0.2-0.6-0.2-0.9s0.1-0.7,0.2-0.9
		c0.1-0.3,0.3-0.5,0.6-0.6c0.3-0.2,0.6-0.2,0.9-0.2c0.3,0,0.5,0.1,0.7,0.2c0.2,0.1,0.4,0.3,0.5,0.5V41h0.6v5h-0.5l-0.1-0.6
		c-0.1,0.2-0.3,0.3-0.5,0.5C49.5,46.1,49.2,46.1,48.9,46.1z M49,45.6c0.2,0,0.4-0.1,0.6-0.2c0.2-0.1,0.3-0.3,0.4-0.5
		c0.1-0.2,0.1-0.4,0.1-0.7c0-0.3,0-0.5-0.1-0.7c-0.1-0.2-0.2-0.3-0.4-0.5C49.4,43.1,49.2,43,49,43c-0.2,0-0.4,0.1-0.6,0.2
		c-0.2,0.1-0.3,0.3-0.4,0.5c-0.1,0.2-0.1,0.4-0.1,0.7c0,0.3,0,0.5,0.1,0.7c0.1,0.2,0.2,0.3,0.4,0.5C48.5,45.6,48.7,45.6,49,45.6z"/>
	<path d="M51.9,46v-2.9h-0.5v-0.5h0.5V42c0-0.3,0.1-0.6,0.2-0.7s0.4-0.2,0.7-0.2h0.3v0.5H53c-0.2,0-0.3,0-0.4,0.1
		c-0.1,0.1-0.1,0.2-0.1,0.4v0.6h0.8v0.5h-0.8V46H51.9z M54,46v-5h0.6v5H54z"/>
	<path d="M57.1,46.1c-0.3,0-0.6-0.1-0.9-0.2s-0.5-0.4-0.6-0.6c-0.1-0.3-0.2-0.6-0.2-1c0-0.4,0.1-0.7,0.2-1c0.2-0.3,0.4-0.5,0.6-0.6
		c0.3-0.1,0.6-0.2,0.9-0.2c0.3,0,0.6,0.1,0.9,0.2s0.5,0.4,0.6,0.6c0.2,0.3,0.2,0.6,0.2,1c0,0.4-0.1,0.7-0.2,1
		c-0.2,0.3-0.4,0.5-0.6,0.6C57.7,46,57.4,46.1,57.1,46.1z M57.1,45.6c0.2,0,0.4,0,0.6-0.1s0.3-0.2,0.4-0.4s0.2-0.4,0.2-0.7
		c0-0.3-0.1-0.5-0.2-0.7c-0.1-0.2-0.2-0.3-0.4-0.4S57.3,43,57.1,43c-0.2,0-0.4,0-0.6,0.1s-0.3,0.2-0.4,0.4C56.1,43.8,56,44,56,44.3
		c0,0.3,0.1,0.5,0.2,0.7c0.1,0.2,0.2,0.3,0.4,0.4S56.9,45.6,57.1,45.6z"/>
	<path d="M60.2,46l-1-3.4h0.6l0.7,2.7l0.8-2.7H62l0.8,2.7l0.7-2.7h0.6l-1,3.4h-0.6l-0.8-2.8L60.8,46H60.2z"/>
	<path d="M66.2,46.1c-0.3,0-0.6-0.1-0.9-0.2c-0.3-0.1-0.5-0.4-0.6-0.6c-0.1-0.3-0.2-0.6-0.2-1c0-0.4,0.1-0.7,0.2-0.9
		c0.1-0.3,0.3-0.5,0.6-0.6c0.3-0.1,0.6-0.2,0.9-0.2c0.3,0,0.6,0.1,0.9,0.2c0.2,0.2,0.4,0.3,0.6,0.6c0.1,0.2,0.2,0.5,0.2,0.8
		c0,0.1,0,0.1,0,0.2c0,0.1,0,0.1,0,0.2H65c0,0.3,0.1,0.5,0.2,0.7c0.1,0.2,0.2,0.3,0.4,0.4s0.3,0.1,0.5,0.1c0.2,0,0.4-0.1,0.6-0.2
		c0.2-0.1,0.3-0.3,0.4-0.5h0.6c-0.1,0.3-0.3,0.6-0.5,0.8C66.9,46,66.6,46.1,66.2,46.1z M66.2,43c-0.3,0-0.5,0.1-0.7,0.3
		s-0.3,0.4-0.4,0.7h2.2c0-0.3-0.1-0.6-0.3-0.7C66.7,43.1,66.5,43,66.2,43z"/>
	<path d="M68.6,46v-3.4h0.5l0,0.7c0.1-0.2,0.3-0.4,0.5-0.5c0.2-0.1,0.5-0.2,0.8-0.2v0.6h-0.2c-0.2,0-0.4,0-0.6,0.1
		c-0.2,0.1-0.3,0.2-0.4,0.4s-0.2,0.4-0.2,0.7V46H68.6z"/>
	<path d="M71,46.1c-0.1,0-0.2,0-0.3-0.1s-0.1-0.2-0.1-0.3c0-0.1,0-0.2,0.1-0.3s0.2-0.1,0.3-0.1c0.1,0,0.2,0,0.3,0.1s0.1,0.2,0.1,0.3
		c0,0.1,0,0.2-0.1,0.3S71.1,46.1,71,46.1z"/>
	<path d="M73.7,46.1c-0.3,0-0.6-0.1-0.9-0.2c-0.3-0.1-0.5-0.4-0.6-0.6C72.1,45,72,44.7,72,44.3c0-0.4,0.1-0.7,0.2-0.9
		c0.2-0.3,0.4-0.5,0.6-0.6c0.3-0.1,0.6-0.2,0.9-0.2c0.4,0,0.8,0.1,1,0.3c0.3,0.2,0.5,0.5,0.5,0.9h-0.6c0-0.2-0.2-0.4-0.3-0.5
		C74.2,43.1,74,43,73.7,43c-0.2,0-0.4,0-0.5,0.1s-0.3,0.2-0.4,0.4c-0.1,0.2-0.2,0.4-0.2,0.7c0,0.3,0.1,0.5,0.2,0.7
		c0.1,0.2,0.2,0.3,0.4,0.4c0.2,0.1,0.4,0.1,0.5,0.1c0.2,0,0.5-0.1,0.6-0.2c0.2-0.1,0.3-0.3,0.3-0.5h0.6c-0.1,0.3-0.2,0.6-0.5,0.8
		C74.5,46,74.1,46.1,73.7,46.1z"/>
	<path d="M77.7,46.1c-0.3,0-0.6-0.1-0.9-0.2s-0.5-0.4-0.6-0.6C76,45,76,44.7,76,44.3c0-0.4,0.1-0.7,0.2-1c0.2-0.3,0.4-0.5,0.6-0.6
		c0.3-0.1,0.6-0.2,0.9-0.2c0.3,0,0.6,0.1,0.9,0.2s0.5,0.4,0.6,0.6c0.2,0.3,0.2,0.6,0.2,1c0,0.4-0.1,0.7-0.2,1
		c-0.2,0.3-0.4,0.5-0.6,0.6C78.3,46,78,46.1,77.7,46.1z M77.7,45.6c0.2,0,0.4,0,0.6-0.1s0.3-0.2,0.4-0.4s0.2-0.4,0.2-0.7
		c0-0.3-0.1-0.5-0.2-0.7c-0.1-0.2-0.2-0.3-0.4-0.4S77.9,43,77.7,43c-0.2,0-0.4,0-0.6,0.1s-0.3,0.2-0.4,0.4c-0.1,0.2-0.2,0.4-0.2,0.7
		c0,0.3,0.1,0.5,0.2,0.7c0.1,0.2,0.2,0.3,0.4,0.4S77.5,45.6,77.7,45.6z"/>
	<path d="M80.2,46v-3.4h0.5l0,0.5c0.1-0.2,0.3-0.3,0.4-0.4s0.4-0.2,0.6-0.2c0.3,0,0.5,0.1,0.7,0.2c0.2,0.1,0.3,0.3,0.5,0.5
		c0.1-0.2,0.3-0.4,0.5-0.5c0.2-0.1,0.4-0.2,0.7-0.2c0.4,0,0.7,0.1,1,0.4c0.2,0.2,0.4,0.6,0.4,1.1v2H85v-1.9c0-0.4-0.1-0.6-0.2-0.8
		c-0.1-0.2-0.3-0.3-0.6-0.3c-0.3,0-0.5,0.1-0.7,0.3s-0.3,0.5-0.3,0.9V46h-0.6v-1.9c0-0.4-0.1-0.6-0.2-0.8C82.2,43.1,82,43,81.7,43
		c-0.3,0-0.5,0.1-0.7,0.3c-0.2,0.2-0.3,0.5-0.3,0.9V46H80.2z"/>
</g>
</svg>
