<svg width="102" height="56" viewBox="0 0 102 56" fill="none" xmlns="http://www.w3.org/2000/svg">
<rect x="0.8" y="0.8" width="99.5111" height="54.4" fill="#FFF4E8"/>
<path d="M16 28.3284C16 24.6711 17.1937 21.5419 19.581 18.9406C21.9684 16.3135 24.8961 15 28.364 15C30.1483 15 33.1262 15.5795 37.2978 16.7385C37.3983 19.6746 37.4486 21.2714 37.4486 21.529C37.4486 21.9153 37.1847 22.1085 36.657 22.1085C36.4057 22.1085 36.2423 22.0441 36.1669 21.9153C35.4884 18.3868 32.9251 16.6226 28.4771 16.6226C25.9641 16.6226 23.8657 17.7172 22.182 19.9064C20.4983 22.0956 19.6564 24.7355 19.6564 27.8262C19.6564 30.685 20.5737 33.3249 22.4082 35.7459C24.2678 38.1412 26.5924 39.3388 29.3818 39.3388C31.5933 39.3388 33.2267 39.0555 34.2822 38.4889C34.4581 38.4116 34.546 38.2184 34.546 37.9094L34.5083 34.7415V34.471C34.5083 32.7969 34.4078 31.6895 34.2068 31.1486C34.1063 30.891 33.6916 30.685 32.9628 30.5305C32.2592 30.3759 31.7063 30.2987 31.3043 30.2987C31.2037 30.2987 31.1535 30.1441 31.1535 29.8351C31.1535 29.5002 31.2037 29.2813 31.3043 29.1783C34.5209 29.3071 36.1669 29.3715 36.2423 29.3715C36.4434 29.3715 37.8004 29.3071 40.3134 29.1783C40.3637 29.3328 40.3888 29.5131 40.3888 29.7192C40.3888 30.1055 40.3385 30.2987 40.238 30.2987C40.0872 30.2987 39.7354 30.3888 39.1826 30.5691C38.6548 30.7236 38.2779 30.8653 38.0517 30.9941C37.8004 31.1743 37.6747 32.0371 37.6747 33.5825C37.6747 34.1233 37.6873 34.7157 37.7124 35.3596C37.7627 35.9777 37.7878 36.3125 37.7878 36.364C37.7878 36.8276 37.8758 37.2784 38.0517 37.7162C38.2276 38.154 38.3156 38.4116 38.3156 38.4889C38.3156 38.6949 38.0014 38.9267 37.3732 39.1843C37.3229 39.21 37.0716 39.313 36.6193 39.4933C36.1921 39.6478 35.9156 39.7509 35.79 39.8024C35.6643 39.8539 35.3753 39.9569 34.923 40.1114C34.4958 40.2402 34.144 40.3304 33.8675 40.3819C33.6162 40.4334 33.2393 40.5106 32.7367 40.6137C32.2592 40.7167 31.7943 40.7811 31.3419 40.8068C30.9147 40.8583 30.3996 40.897 29.7964 40.9227C29.2185 40.9742 28.6028 41 27.9494 41C24.6322 41 21.8051 39.7509 19.468 37.2526C17.156 34.7543 16 31.7796 16 28.3284Z" fill="black"/>
<path d="M56.6354 37.0981C55.9067 36.3512 55.0271 35.2694 53.9968 33.8529C52.9664 32.4364 52.1246 31.213 51.4712 30.1828L50.4534 28.6374C49.5487 29.2813 48.8828 29.7836 48.4556 30.1441C48.0284 30.479 47.6011 31.0069 47.1739 31.7281C46.7719 32.4492 46.5708 33.2476 46.5708 34.1233C46.5708 35.8232 47.086 37.0981 48.1163 37.948C49.1467 38.7979 50.4157 39.2229 51.9235 39.2229C52.7026 39.2229 53.5319 39.0297 54.4114 38.6434C55.3161 38.2571 56.0574 37.742 56.6354 37.0981ZM53.1298 16.8158C52.3005 16.8158 51.5968 17.0991 51.0188 17.6657C50.4409 18.2065 50.1519 18.9148 50.1519 19.7905C50.1519 21.4388 50.8052 23.4735 52.112 25.8945C53.4188 25.1218 54.3612 24.3492 54.9391 23.5765C55.5423 22.7781 55.8438 21.6835 55.8438 20.2927C55.8438 19.3655 55.5925 18.5542 55.0899 17.8588C54.5873 17.1634 53.9339 16.8158 53.1298 16.8158ZM52.9413 15.425C54.625 15.425 55.9569 15.8113 56.937 16.584C57.9171 17.3309 58.4071 18.3868 58.4071 19.7519C58.4071 21.3229 57.9171 22.6622 56.937 23.7697C55.9569 24.8772 54.5748 25.9975 52.7905 27.1308C54.2481 29.6548 56.1077 32.2174 58.3694 34.8187C58.9977 33.84 59.5128 32.9 59.9149 31.9985C60.317 31.0971 60.518 30.5305 60.518 30.2987C60.518 30.0669 60.3924 29.9123 60.1411 29.8351C59.9149 29.732 59.651 29.6805 59.3495 29.6805C59.0479 29.6548 58.872 29.629 58.8218 29.6033C58.7715 29.5002 58.7464 29.3457 58.7464 29.1397C58.7464 28.9336 58.7841 28.792 58.8595 28.7147H61.8374C62.2143 28.7147 62.6038 28.7018 63.0059 28.6761C63.4331 28.6503 63.9232 28.6246 64.476 28.5988C65.054 28.5731 65.5566 28.5473 65.9838 28.5215C66.1095 28.5988 66.1723 28.7662 66.1723 29.0238C66.1723 29.4101 66.0969 29.6033 65.9461 29.6033C65.6195 29.6033 65.1545 29.6805 64.5514 29.8351C63.9483 29.9896 63.5462 30.1313 63.3452 30.26C63.32 30.2858 63.1441 30.582 62.8174 31.1486C62.4908 31.6895 62.0133 32.4364 61.385 33.3893C60.7568 34.3422 60.1034 35.2179 59.4249 36.0163C60.0029 36.6345 60.405 37.0594 60.6311 37.2912C60.8573 37.523 61.1589 37.8192 61.5358 38.1798C61.9128 38.5146 62.2143 38.7464 62.4405 38.8752C62.6667 38.9782 62.8928 39.0297 63.119 39.0297C63.4708 39.0297 63.8478 38.8108 64.2499 38.373C64.6771 37.9351 64.9535 37.5617 65.0792 37.2526C65.2802 37.2526 65.4687 37.3299 65.6446 37.4844C65.8456 37.6389 65.9461 37.7935 65.9461 37.948C65.8456 38.154 65.7325 38.3601 65.6069 38.5661C65.4812 38.7722 65.2551 39.0684 64.9284 39.4547C64.6268 39.841 64.1996 40.163 63.6467 40.4205C63.119 40.6523 62.5159 40.7682 61.8374 40.7682C61.184 40.7682 60.4929 40.5364 59.7641 40.0728C59.0354 39.6092 58.4825 39.1456 58.1055 38.682L57.5024 37.9866C55.3412 39.9183 53.0544 40.8841 50.6419 40.8841C48.4053 40.8841 46.6211 40.3304 45.2892 39.2229C43.9824 38.1154 43.329 36.5958 43.329 34.6642C43.329 32.9901 43.8819 31.5993 44.9876 30.4918C46.0933 29.3586 47.6263 28.2769 49.5864 27.2467C49.109 26.4225 48.7446 25.7657 48.4933 25.2764C48.2671 24.7613 48.0284 24.0788 47.7771 23.2288C47.5258 22.3789 47.4001 21.5419 47.4001 20.7177C47.4001 19.2496 47.9278 18.0005 48.9833 16.9703C50.0388 15.9401 51.3581 15.425 52.9413 15.425Z" fill="black"/>
<path d="M72.7313 15.425C73.8621 15.425 75.8223 15.3735 78.6117 15.2704C81.4012 15.1674 83.4996 15.1159 84.9068 15.1159C85.0074 15.8628 85.1958 16.8544 85.4723 18.0906C85.7738 19.3011 85.9497 20.0609 86 20.37C85.8743 20.4988 85.6482 20.5632 85.3215 20.5632C84.9948 20.5632 84.8189 20.473 84.7938 20.2927C84.4168 18.8762 83.8891 17.9747 83.2106 17.5884C82.532 17.1763 81.6022 16.9703 80.4211 16.9703H77.8955C75.7343 16.9703 74.6286 17.1377 74.5784 17.4725C74.4527 18.0906 74.3899 19.1724 74.3899 20.7177V27.0149C74.3899 27.1694 74.9176 27.2467 75.9731 27.2467H77.9709C79.6546 27.2467 80.685 27.1308 81.0619 26.899C81.4389 26.6414 81.7656 25.9331 82.042 24.7741C82.0671 24.6196 82.0923 24.5037 82.1174 24.4264C82.1425 24.2462 82.331 24.156 82.6828 24.156C82.9844 24.156 83.198 24.2204 83.3236 24.3492V31.844C83.2231 31.947 83.0221 31.9985 82.7205 31.9985C82.3938 31.9985 82.1928 31.8955 82.1174 31.6895C81.9415 30.9941 81.7907 30.479 81.6651 30.1441C81.5394 29.7836 81.4389 29.5775 81.3635 29.526C81.3132 29.4487 81.2127 29.3586 81.0619 29.2556C80.7352 29.0495 79.4033 28.9465 77.0662 28.9465C75.282 28.9465 74.3899 29.0624 74.3899 29.2942V35.3982C74.3899 36.892 74.503 38.0896 74.7291 38.9911C74.7794 39.1714 75.1312 39.3517 75.7846 39.5319C76.438 39.6865 76.8903 39.7637 77.1416 39.7637C77.2421 39.7637 77.2924 39.9569 77.2924 40.3432C77.2924 40.5493 77.2673 40.7296 77.217 40.8841C74.704 40.7553 73.2465 40.6909 72.8444 40.6909C72.7187 40.6909 71.2109 40.7553 68.3209 40.8841C68.2204 40.7811 68.1702 40.5879 68.1702 40.3046C68.1702 39.944 68.2204 39.7637 68.3209 39.7637C68.6476 39.7637 69.1251 39.6865 69.7534 39.5319C70.4067 39.3774 70.7711 39.1971 70.8465 38.9911C71.0224 38.2957 71.1104 37.1367 71.1104 35.5141V20.6404C71.1104 19.1209 71.0224 18.0134 70.8465 17.318C70.7711 17.1119 70.3942 16.9188 69.7157 16.7385C69.0623 16.5582 68.5722 16.4681 68.2456 16.4681C68.145 16.4681 68.0948 16.3135 68.0948 16.0045C68.0948 15.6696 68.145 15.4507 68.2456 15.3477C69.5523 15.3992 71.0476 15.425 72.7313 15.425Z" fill="black"/>
<path fill-rule="evenodd" clip-rule="evenodd" d="M19.8475 19.1827L19.8463 19.184C17.5222 21.7163 16.36 24.7577 16.36 28.3284C16.36 31.69 17.4825 34.5768 19.7315 37.0074C22.0028 39.435 24.7356 40.64 27.9494 40.64C28.5934 40.64 29.1983 40.6146 29.7645 40.5642L29.7728 40.5634L29.7811 40.5631C30.3783 40.5376 30.8837 40.4995 31.2989 40.4494L31.3101 40.4481L31.3215 40.4474C31.7538 40.4228 32.2001 40.3612 32.6607 40.2618L32.6644 40.261L32.6791 40.258L32.7342 40.2467L32.8359 40.2258L32.8744 40.2179L32.9657 40.1992L33.0383 40.1844L33.0459 40.1828L33.0536 40.1812L33.0662 40.1786L33.0888 40.174L33.0913 40.1735L33.1112 40.1694L33.1816 40.155L33.2077 40.1496L33.21 40.1492L33.2147 40.1482L33.2171 40.1477L33.2611 40.1387L33.2634 40.1382L33.3174 40.1271L33.3196 40.1267L33.3218 40.1262L33.3372 40.1231L33.3525 40.12L33.3741 40.1155L33.3762 40.1151L33.3784 40.1147L33.3869 40.1129L33.4059 40.109L33.4143 40.1073L33.433 40.1035L33.4615 40.0976L33.4636 40.0972L33.4656 40.0968L33.4736 40.0951L33.4796 40.0939L33.4856 40.0927L33.519 40.0858L33.5209 40.0854L33.5228 40.085L33.5553 40.0784L33.5665 40.0761L33.574 40.0746L33.5758 40.0742L33.5777 40.0738L33.6033 40.0686L33.6051 40.0682L33.6194 40.0652L33.6266 40.0638L33.6424 40.0605L33.6493 40.0591L33.6511 40.0588L33.6528 40.0584L33.6665 40.0556L33.6699 40.0549L33.6818 40.0525L33.6834 40.0521L33.6868 40.0514L33.6935 40.0501L33.6951 40.0497L33.6968 40.0494L33.7034 40.048L33.7356 40.0414L33.7372 40.0411L33.7388 40.0408L33.7652 40.0354L33.7667 40.035L33.7683 40.0347L33.7713 40.0341L33.7728 40.0338L33.7743 40.0335L33.7893 40.0304L33.7938 40.0295L33.8016 40.0279C34.0587 39.98 34.3947 39.8945 34.8128 39.7687C35.2644 39.6143 35.5403 39.5157 35.6534 39.4693C35.7868 39.4146 36.0689 39.3096 36.4913 39.1568C36.7145 39.0678 36.8874 38.9982 37.0105 38.9477C37.0726 38.9223 37.121 38.9021 37.1564 38.887C37.1917 38.8719 37.2063 38.8651 37.2087 38.864L37.2225 38.8569L37.2366 38.8512C37.5403 38.7267 37.7443 38.6176 37.8662 38.5276C37.9046 38.4992 37.9288 38.4774 37.9436 38.4623C37.9355 38.4345 37.9242 38.3987 37.9089 38.3541C37.8679 38.2341 37.8047 38.067 37.7176 37.8504C37.5249 37.3707 37.4278 36.8745 37.4278 36.364C37.4278 36.3654 37.4273 36.3478 37.4239 36.2957C37.4208 36.2491 37.4162 36.1845 37.41 36.1012C37.3975 35.9349 37.3787 35.6976 37.3536 35.3888L37.353 35.3812L37.3527 35.3736C37.3274 34.7259 37.3147 34.1288 37.3147 33.5825C37.3147 32.8035 37.3462 32.1813 37.4127 31.7245C37.4459 31.4967 37.4895 31.2972 37.5482 31.1349C37.6029 30.9834 37.6891 30.8111 37.8418 30.7015L37.8572 30.6905L37.8736 30.6812C38.1376 30.5309 38.5469 30.3803 39.0761 30.2251C39.3538 30.1347 39.5864 30.065 39.7717 30.0175C39.8577 29.9955 39.9413 29.9761 40.0188 29.9621C40.0247 29.9033 40.0288 29.8236 40.0288 29.7192C40.0288 29.66 40.0264 29.6049 40.0218 29.5537C37.7142 29.6715 36.4466 29.7315 36.2423 29.7315C36.1595 29.7315 34.5816 29.6697 31.5328 29.5477C31.521 29.6183 31.5135 29.7128 31.5135 29.8351C31.5135 29.8767 31.5145 29.913 31.5164 29.9445C31.926 29.966 32.4359 30.0462 33.0388 30.1786C33.4167 30.2588 33.7351 30.3565 33.9806 30.4785C34.2178 30.5963 34.4435 30.7649 34.5421 31.0177L34.5443 31.0231C34.6619 31.3396 34.7405 31.7904 34.7915 32.3523C34.8431 32.9208 34.8683 33.6279 34.8683 34.471V34.7415L34.9061 37.9094C34.906 38.2603 34.8062 38.643 34.4415 38.8119C33.306 39.4174 31.6032 39.6988 29.3818 39.6988C26.4705 39.6988 24.0448 38.441 22.1238 35.9667L22.1212 35.9633C20.2425 33.484 19.2964 30.7686 19.2964 27.8262C19.2964 24.6661 20.1588 21.9465 21.8967 19.6869C23.6408 17.4192 25.8402 16.2626 28.4771 16.2626C30.744 16.2626 32.5773 16.7115 33.9397 17.6492C35.2825 18.5734 36.1301 19.9465 36.4974 21.7317C36.5278 21.7402 36.5786 21.7485 36.657 21.7485C36.8876 21.7485 36.9953 21.7044 37.038 21.6731C37.0598 21.6572 37.0886 21.631 37.0886 21.529C37.0886 21.2871 37.0417 19.7877 36.947 17.015C32.9097 15.9033 30.0586 15.36 28.364 15.36C25.0002 15.36 22.1684 16.6287 19.8475 19.1827ZM37.2978 16.7385C37.3983 19.6746 37.4486 21.2714 37.4486 21.529C37.4486 21.9153 37.1847 22.1085 36.657 22.1085C36.4057 22.1085 36.2423 22.0441 36.1669 21.9153C35.4884 18.3868 32.9251 16.6226 28.4771 16.6226C25.9641 16.6226 23.8657 17.7172 22.182 19.9064C20.4983 22.0956 19.6564 24.7355 19.6564 27.8262C19.6564 30.685 20.5737 33.3249 22.4082 35.7459C24.2678 38.1412 26.5924 39.3388 29.3818 39.3388C31.5933 39.3388 33.2267 39.0555 34.2822 38.4889C34.4581 38.4116 34.546 38.2184 34.546 37.9094L34.5083 34.7415V34.471C34.5083 32.7969 34.4078 31.6895 34.2068 31.1486C34.1063 30.891 33.6916 30.685 32.9628 30.5305C32.2592 30.3759 31.7063 30.2987 31.3043 30.2987C31.2037 30.2987 31.1535 30.1441 31.1535 29.8351C31.1535 29.5002 31.2037 29.2813 31.3043 29.1783C34.5209 29.3071 36.1669 29.3715 36.2423 29.3715C36.4434 29.3715 37.8004 29.3071 40.3134 29.1783C40.3637 29.3328 40.3888 29.5131 40.3888 29.7192C40.3888 30.1055 40.3385 30.2987 40.238 30.2987C40.0872 30.2987 39.7354 30.3888 39.1826 30.5691C38.6548 30.7236 38.2779 30.8653 38.0517 30.9941C37.8004 31.1743 37.6747 32.0371 37.6747 33.5825C37.6747 34.1233 37.6873 34.7157 37.7124 35.3596C37.7627 35.9777 37.7878 36.3125 37.7878 36.364C37.7878 36.8276 37.8758 37.2784 38.0517 37.7162C38.2276 38.154 38.3156 38.4116 38.3156 38.4889C38.3156 38.6949 38.0014 38.9267 37.3732 39.1842C37.3229 39.21 37.0716 39.313 36.6193 39.4933C36.1921 39.6478 35.9156 39.7509 35.79 39.8024C35.6643 39.8539 35.3753 39.9569 34.923 40.1114C34.4958 40.2402 34.144 40.3304 33.8675 40.3819L32.7367 40.6137C32.2592 40.7167 31.7943 40.7811 31.3419 40.8068C30.9147 40.8583 30.3996 40.897 29.7964 40.9227C29.2185 40.9742 28.6028 41 27.9494 41C24.6322 41 21.8051 39.7509 19.468 37.2526C17.156 34.7543 16 31.7796 16 28.3284C16 24.6711 17.1937 21.5419 19.581 18.9406C21.9684 16.3135 24.8961 15 28.364 15C30.1483 15 33.1262 15.5795 37.2978 16.7385ZM39.9987 30.0764C39.9987 30.0762 39.9989 30.0756 39.9993 30.0746ZM57.1284 37.0878L56.9033 37.3386C56.2862 38.0261 55.5002 38.5696 54.5547 38.9737C53.6404 39.3751 52.7621 39.5829 51.9235 39.5829C50.3436 39.5829 48.9904 39.1357 47.8872 38.2257C46.7523 37.2895 46.2108 35.8989 46.2108 34.1233C46.2108 33.1901 46.4257 32.3308 46.8595 31.5528L46.8641 31.5445C47.3014 30.8063 47.754 30.2381 48.2283 29.8649C48.6673 29.4948 49.3415 28.987 50.2447 28.3441L50.5488 28.1277L51.7752 29.9899C52.4232 31.0116 53.2603 32.2284 54.2879 33.6411C55.3139 35.0517 56.1818 36.1177 56.8931 36.8467L57.1284 37.0878ZM48.4556 30.1441C48.0284 30.479 47.6011 31.0069 47.1739 31.7281C46.7719 32.4492 46.5708 33.2476 46.5708 34.1233C46.5708 35.8232 47.086 37.0981 48.1163 37.948C49.1467 38.7979 50.4157 39.2229 51.9235 39.2229C52.7026 39.2229 53.5319 39.0297 54.4114 38.6434C55.3161 38.2571 56.0574 37.742 56.6354 37.0981C55.9067 36.3512 55.0271 35.2694 53.9968 33.8529C52.9664 32.4364 52.1246 31.213 51.4712 30.1828L50.4534 28.6374C50.3528 28.7091 50.2551 28.7789 50.1604 28.847C49.4035 29.3913 48.8353 29.8237 48.4556 30.1441ZM51.9428 25.5763C50.7489 23.2947 50.1519 21.3661 50.1519 19.7905C50.1519 18.9148 50.4409 18.2065 51.0188 17.6657C51.5968 17.0991 52.3005 16.8158 53.1298 16.8158C53.9339 16.8158 54.5873 17.1634 55.0899 17.8588C55.5925 18.5542 55.8438 19.3655 55.8438 20.2927C55.8438 21.6835 55.5423 22.7781 54.9391 23.5765C54.4077 24.287 53.5681 24.9975 52.4204 25.708C52.32 25.7701 52.2172 25.8323 52.112 25.8945C52.0543 25.7877 51.998 25.6816 51.9428 25.5763ZM55.2269 23.7929C54.6088 24.6188 53.6217 25.4201 52.2952 26.2044L51.973 26.3949L51.7952 26.0655C50.4768 23.6229 49.7919 21.5259 49.7919 19.7905C49.7919 18.8284 50.113 18.0219 50.7698 17.4057C51.4164 16.7733 52.2102 16.4558 53.1298 16.4558C54.0583 16.4558 54.8167 16.8663 55.3817 17.648C55.9323 18.4098 56.2038 19.2963 56.2038 20.2927C56.2038 21.7316 55.8922 22.9118 55.2269 23.7929ZM56.7141 16.8667C55.8166 16.1591 54.5722 15.785 52.9413 15.785C51.4445 15.785 50.2177 16.2685 49.2348 17.2279C48.2483 18.1907 47.7601 19.3471 47.7601 20.7177C47.7601 21.5048 47.88 22.3075 48.1223 23.1268C48.3698 23.9638 48.6021 24.6271 48.8186 25.1218C49.0657 25.6022 49.4249 26.2497 49.8979 27.0662L50.086 27.3908L49.7539 27.5653C47.8149 28.5844 46.3165 29.6454 45.2453 30.7432L45.2424 30.7462C44.2091 31.7811 43.689 33.0781 43.689 34.6642C43.689 36.5046 44.3063 37.9174 45.5207 38.9472C46.7709 39.9862 48.4653 40.5241 50.6419 40.5241C52.9488 40.5241 55.1533 39.6034 57.2625 37.7182L57.535 37.4747L58.385 38.4548C58.7293 38.8783 59.248 39.3178 59.9574 39.7691C60.6466 40.2075 61.2712 40.4082 61.8374 40.4082C62.4731 40.4082 63.0244 40.3 63.4983 40.0925C64.0101 39.8535 64.3862 39.5642 64.6446 39.2332L64.6533 39.222C64.978 38.838 65.1892 38.5597 65.2995 38.3787C65.3959 38.2207 65.4842 38.0631 65.5647 37.9061C65.542 37.8733 65.4996 37.827 65.4252 37.7698L65.4158 37.7626L65.407 37.7549C65.3614 37.7148 65.318 37.6849 65.2762 37.663C65.1034 37.961 64.8423 38.2809 64.5113 38.6205C64.0868 39.0816 63.6213 39.3897 63.119 39.3897C62.8364 39.3897 62.5596 39.325 62.2913 39.2028L62.2765 39.1961L62.2624 39.188C62.0026 39.0401 61.6785 38.788 61.2967 38.4489L61.2868 38.4401C60.9084 38.0782 60.6037 37.7786 60.3735 37.5426C60.1443 37.3078 59.7398 36.8802 59.1619 36.2622L58.9427 36.0278L59.1506 35.7832C59.8188 34.9969 60.4635 34.133 61.0845 33.1912C61.7106 32.2414 62.1845 31.5 62.5075 30.9655C62.6701 30.6834 62.7961 30.4672 62.8849 30.3177C62.9293 30.2428 62.9655 30.183 62.9927 30.1394C63.0062 30.1178 63.0189 30.098 63.03 30.0814C63.0342 30.0752 63.0575 30.0393 63.0875 30.0086L63.1163 29.9791L63.151 29.9569C63.4071 29.7929 63.863 29.6398 64.4621 29.4863C64.996 29.3495 65.4452 29.2662 65.7989 29.2474C65.7997 29.2421 65.8004 29.2366 65.8012 29.2309C65.8081 29.1778 65.8123 29.1095 65.8123 29.0238C65.8123 28.9682 65.8085 28.9252 65.8033 28.8928C65.42 28.9147 64.983 28.9366 64.4923 28.9584C63.9411 28.9841 63.4531 29.0098 63.0282 29.0354C62.6192 29.0616 62.2223 29.0747 61.8374 29.0747H59.1082C59.107 29.094 59.1064 29.1156 59.1064 29.1397C59.1064 29.2018 59.1091 29.2531 59.1132 29.295C59.1801 29.3032 59.2639 29.3118 59.3654 29.3206C59.6933 29.3223 59.9974 29.3782 60.2697 29.4982C60.4336 29.552 60.5883 29.6406 60.7031 29.7818C60.8264 29.9335 60.878 30.1143 60.878 30.2987C60.878 30.4844 60.8056 30.7386 60.7065 31.0179C60.6015 31.3139 60.4465 31.6905 60.2437 32.1452C59.8331 33.0658 59.3087 34.0218 58.6724 35.0132L58.4129 35.4174L58.0977 35.0549C55.8236 32.4393 53.9497 29.858 52.4788 27.3108L52.3062 27.0119L52.5975 26.8269C54.3644 25.7047 55.717 24.6051 56.6674 23.5311C57.5854 22.4938 58.0471 21.241 58.0471 19.7519C58.0471 18.4853 57.599 17.5411 56.7188 16.8703L56.7141 16.8667ZM60.1411 29.8351C59.9149 29.732 59.6511 29.6805 59.3495 29.6805C59.0479 29.6548 58.872 29.629 58.8218 29.6033C58.7715 29.5002 58.7464 29.3457 58.7464 29.1397C58.7464 28.9336 58.7841 28.792 58.8595 28.7147H61.8374C62.2143 28.7147 62.6038 28.7018 63.0059 28.6761C63.4331 28.6503 63.9232 28.6246 64.476 28.5988C65.054 28.5731 65.5566 28.5473 65.9838 28.5215C66.1095 28.5988 66.1723 28.7662 66.1723 29.0238C66.1723 29.4101 66.0969 29.6033 65.9461 29.6033C65.6195 29.6033 65.1545 29.6805 64.5514 29.8351C63.9483 29.9896 63.5462 30.1313 63.3452 30.26C63.32 30.2858 63.1441 30.582 62.8174 31.1486C62.4908 31.6895 62.0133 32.4364 61.385 33.3893C60.7568 34.3422 60.1034 35.2179 59.4249 36.0163C60.0029 36.6345 60.405 37.0594 60.6311 37.2912C60.8573 37.523 61.1589 37.8192 61.5358 38.1798C61.9128 38.5146 62.2143 38.7464 62.4405 38.8752C62.6667 38.9782 62.8928 39.0297 63.119 39.0297C63.4708 39.0297 63.8478 38.8108 64.2499 38.373C64.6771 37.9351 64.9535 37.5617 65.0792 37.2526C65.2802 37.2526 65.4687 37.3299 65.6446 37.4844C65.8456 37.6389 65.9461 37.7935 65.9461 37.948C65.8456 38.154 65.7325 38.3601 65.6069 38.5661C65.4812 38.7722 65.2551 39.0684 64.9284 39.4547C64.6268 39.841 64.1996 40.163 63.6467 40.4205C63.119 40.6523 62.5159 40.7682 61.8374 40.7682C61.184 40.7682 60.4929 40.5364 59.7641 40.0728C59.0354 39.6092 58.4825 39.1456 58.1055 38.682L57.5024 37.9866C57.5024 37.9866 57.5024 37.9866 57.5024 37.9866C57.4123 38.0672 57.3218 38.1462 57.2312 38.2234C55.1502 39.9972 52.9537 40.8841 50.6419 40.8841C48.4053 40.8841 46.6211 40.3304 45.2892 39.2229C43.9824 38.1154 43.329 36.5958 43.329 34.6642C43.329 32.9901 43.8819 31.5993 44.9876 30.4918C46.0329 29.4206 47.4598 28.3954 49.2686 27.4162C49.3733 27.3595 49.4792 27.303 49.5864 27.2467C49.5245 27.1398 49.4645 27.0358 49.4064 26.9346C49.0164 26.255 48.712 25.7023 48.4933 25.2764C48.2671 24.7613 48.0284 24.0788 47.7771 23.2288C47.5258 22.3789 47.4001 21.5419 47.4001 20.7177C47.4001 19.2496 47.9278 18.0005 48.9833 16.9703C50.0388 15.9401 51.3581 15.425 52.9413 15.425C54.625 15.425 55.9569 15.8113 56.937 16.584C57.9171 17.3309 58.4071 18.3868 58.4071 19.7519C58.4071 21.3229 57.9171 22.6622 56.937 23.7697C55.9569 24.8772 54.5748 25.9975 52.7905 27.1308C54.195 29.5628 55.9727 32.0307 58.1238 34.5345C58.2051 34.6292 58.287 34.7239 58.3694 34.8187C58.4377 34.7123 58.5047 34.6064 58.5703 34.5009C59.1083 33.6361 59.5565 32.802 59.9149 31.9985C60.317 31.0971 60.518 30.5305 60.518 30.2987C60.518 30.0669 60.3924 29.9123 60.1411 29.8351ZM85.4723 18.0906C85.1958 16.8544 85.0074 15.8628 84.9068 15.1159C83.4995 15.1159 81.4012 15.1674 78.6117 15.2704C75.8223 15.3735 73.8621 15.425 72.7313 15.425C71.0476 15.425 69.5523 15.3992 68.2456 15.3477C68.145 15.4507 68.0948 15.6696 68.0948 16.0045C68.0948 16.3135 68.145 16.4681 68.2456 16.4681C68.5722 16.4681 69.0623 16.5582 69.7157 16.7385C70.3942 16.9188 70.7711 17.1119 70.8465 17.318C71.0224 18.0134 71.1104 19.1209 71.1104 20.6404V35.5141C71.1104 37.1367 71.0224 38.2957 70.8465 38.9911C70.7711 39.1971 70.4067 39.3774 69.7534 39.5319C69.1251 39.6865 68.6476 39.7637 68.3209 39.7637C68.2204 39.7637 68.1702 39.944 68.1702 40.3046C68.1702 40.5879 68.2204 40.7811 68.3209 40.8841C71.2109 40.7553 72.7187 40.6909 72.8444 40.6909C73.2465 40.6909 74.704 40.7553 77.217 40.8841C77.2673 40.7296 77.2924 40.5493 77.2924 40.3432C77.2924 39.9569 77.2421 39.7637 77.1416 39.7637C76.8903 39.7637 76.438 39.6865 75.7846 39.5319C75.1312 39.3517 74.7794 39.1714 74.7291 38.9911C74.503 38.0896 74.3899 36.892 74.3899 35.3982V29.2942C74.3899 29.0624 75.282 28.9465 77.0662 28.9465C79.4033 28.9465 80.7352 29.0495 81.0619 29.2556C81.2127 29.3586 81.3132 29.4487 81.3635 29.526C81.4389 29.5775 81.5394 29.7836 81.665 30.1441C81.7907 30.479 81.9415 30.9941 82.1174 31.6895C82.1928 31.8955 82.3938 31.9985 82.7205 31.9985C83.0221 31.9985 83.2231 31.947 83.3236 31.844V24.3492C83.198 24.2204 82.9844 24.156 82.6828 24.156C82.331 24.156 82.1425 24.2462 82.1174 24.4264C82.0923 24.5037 82.0671 24.6196 82.042 24.7741C81.7656 25.9331 81.4389 26.6414 81.0619 26.899C80.685 27.1308 79.6546 27.2467 77.9709 27.2467H75.9731C74.9176 27.2467 74.3899 27.1694 74.3899 27.0149V20.7177C74.3899 19.1724 74.4527 18.0906 74.5784 17.4725C74.6286 17.1377 75.7343 16.9703 77.8955 16.9703H80.4211C81.6022 16.9703 82.532 17.1763 83.2106 17.5884C83.8891 17.9747 84.4168 18.8762 84.7938 20.2927C84.8189 20.473 84.9948 20.5632 85.3215 20.5632C85.6482 20.5632 85.8744 20.4988 86 20.37C85.9497 20.0609 85.7738 19.3011 85.4723 18.0906ZM85.5972 20.1787C85.5179 19.7971 85.361 19.1334 85.1229 18.1777L85.1208 18.1692C84.8799 17.0917 84.7042 16.1933 84.595 15.4767C83.2028 15.4835 81.2136 15.5346 78.625 15.6302C75.8357 15.7332 73.8695 15.785 72.7313 15.785C71.1472 15.785 69.728 15.7622 68.4741 15.7166C68.4624 15.7872 68.4548 15.8818 68.4548 16.0045C68.4548 16.0475 68.4559 16.085 68.4579 16.1173C68.8124 16.1461 69.2672 16.2413 69.8097 16.391C70.1592 16.4839 70.4505 16.5849 70.6714 16.6982C70.875 16.8025 71.0974 16.9559 71.1846 17.1943L71.191 17.2117L71.1955 17.2297C71.3831 17.9711 71.4704 19.1165 71.4704 20.6404V35.5141C71.4704 37.1387 71.3834 38.3369 71.1955 39.0794L71.191 39.0974L71.1846 39.1148C71.0972 39.3536 70.8782 39.5036 70.6763 39.6035C70.4594 39.7109 70.1755 39.802 69.8377 39.8819C69.3189 40.0095 68.882 40.0903 68.5368 40.1154C68.5328 40.164 68.5302 40.2264 68.5302 40.3046C68.5302 40.3917 68.5358 40.4606 68.5444 40.5138C71.2703 40.3925 72.7119 40.3309 72.8444 40.3309C73.2409 40.3309 74.6069 40.3908 76.9255 40.5087C76.93 40.4575 76.9324 40.4024 76.9324 40.3432C76.9324 40.2456 76.9288 40.1695 76.9235 40.1119C76.6251 40.0832 76.2125 40.0031 75.7017 39.8823L75.6888 39.8792C75.3526 39.7865 75.0743 39.6884 74.8665 39.5819C74.7625 39.5286 74.6643 39.4672 74.583 39.3943C74.5031 39.3227 74.4198 39.2221 74.3824 39.0878L74.3798 39.0787C74.1435 38.1367 74.0299 36.906 74.0299 35.3982V29.2942C74.0299 29.1355 74.1104 29.0183 74.1895 28.9464C74.2634 28.8791 74.3509 28.8361 74.4264 28.8067C74.5793 28.7471 74.7812 28.7065 75.0126 28.6764C75.4825 28.6154 76.1705 28.5865 77.0662 28.5865C78.2383 28.5865 79.1662 28.6123 79.8457 28.6648C80.1851 28.6911 80.4694 28.7245 80.6944 28.7664C80.906 28.8059 81.1099 28.8602 81.254 28.9511L81.2652 28.9581C81.4056 29.0541 81.539 29.1614 81.6309 29.2812C81.6705 29.3191 81.7005 29.359 81.722 29.3906C81.7573 29.4422 81.7894 29.5007 81.819 29.5613C81.8778 29.6818 81.9392 29.8372 82.0036 30.0215C82.1346 30.3716 82.2868 30.893 82.4602 31.5766C82.4651 31.5856 82.4724 31.5924 82.4889 31.6009C82.521 31.6173 82.5906 31.6385 82.7205 31.6385C82.8247 31.6385 82.9044 31.6314 82.9636 31.6207V24.5485C82.9042 24.5307 82.8149 24.516 82.6828 24.516C82.6094 24.516 82.5522 24.5208 82.5088 24.528C82.4878 24.5315 82.4716 24.5354 82.4594 24.5389C82.443 24.5895 82.4215 24.6832 82.3973 24.8319L82.3952 24.8449L82.3922 24.8577C82.251 25.4496 82.0936 25.9415 81.9166 26.3254C81.743 26.7018 81.533 27.0131 81.265 27.1962L81.2579 27.2011L81.2505 27.2056C80.987 27.3676 80.5621 27.4595 80.0467 27.5175C79.5126 27.5776 78.8191 27.6067 77.9709 27.6067H75.9731C75.4413 27.6067 75.0242 27.5875 74.7335 27.5449C74.5918 27.5242 74.4548 27.4945 74.3441 27.4459C74.264 27.4107 74.0299 27.2906 74.0299 27.0149V20.7177C74.0299 19.1784 74.0915 18.0662 74.2241 17.4078C74.2712 17.1329 74.5095 16.9925 74.6705 16.9226C74.8575 16.8413 75.104 16.7834 75.3914 16.7399C75.9717 16.652 76.8102 16.6103 77.8955 16.6103H80.4211C81.6359 16.6103 82.6378 16.8208 83.3932 17.2781C84.1989 17.7395 84.7562 18.7593 85.1377 20.1852C85.1459 20.1874 85.156 20.1897 85.1683 20.1919C85.2053 20.1985 85.2555 20.2032 85.3215 20.2032C85.4441 20.2032 85.5332 20.1926 85.5972 20.1787ZM76.9023 39.986C76.9023 39.9861 76.9025 39.9866 76.9029 39.9877ZM68.4756 16.243C68.4756 16.243 68.4754 16.2424 68.475 16.2412Z" fill="#FFF4E8"/>
<rect x="0.8" y="0.8" width="99.5111" height="54.4" stroke="black" stroke-width="1.6"/>
</svg>
