<svg width="130" height="65" viewBox="0 0 130 65" fill="none" xmlns="http://www.w3.org/2000/svg">
<path d="M24.4533 45.0425C23.7254 43.785 22.2694 43.3218 20.7804 44.3807C19.4237 45.3403 18.5634 47.8882 17.306 50.403C16.1809 52.6531 15.1551 54.9363 13.7985 55.7304C12.7396 56.3591 11.5483 56.4915 11.2175 55.5319C10.8204 54.4069 12.2432 53.1164 14.3279 51.9582L14.2617 51.7597C12.1771 52.9178 9.19898 54.6054 9.96004 56.3591C10.4564 57.4842 12.2432 57.4511 13.6661 56.4253C14.9566 55.4657 15.85 53.8774 16.6773 52.256C20.284 53.9767 19.9531 64.1352 10.2578 64.1352C5.95618 64.1352 3.27592 61.4219 3.0112 58.5431C2.58103 53.7781 5.49293 50.2045 10.8204 52.1567C10.8866 52.0244 10.9196 51.9251 10.9196 51.9251C6.94888 50.5023 4.76496 47.9544 4.76496 45.0755C4.76496 43.0902 5.52602 41.4688 6.8827 40.9062C9.09971 39.9797 12.3094 41.3364 14.4933 45.0094H14.725L15.3537 41.6011C11.5814 40.1783 8.93426 39.9466 6.45253 40.7739C3.9708 41.568 2.41558 42.8916 2.25014 45.241C1.95233 49.3441 6.48562 50.5354 9.16589 51.3957C4.20243 50.1383 -0.397043 53.2156 0.430201 58.3776C0.893457 61.2564 4.56642 64.4992 10.0924 64.4992C19.887 64.4992 20.3502 54.9363 17.5045 52.5538C18.6296 52.8847 20.0524 52.9509 21.6076 51.9582C23.957 50.4692 25.7108 47.2264 24.4533 45.0425ZM21.5084 51.8259C19.5561 53.0833 17.703 52.4546 16.7765 52.0244C17.0412 51.495 17.306 50.9655 17.5376 50.4692C18.5303 48.4507 19.4899 46.0021 20.3502 45.4395C21.2436 44.8108 22.3025 44.9101 23.1628 46.1675C24.2217 47.7558 23.6261 50.4361 21.5084 51.8259Z" fill="#F4F4F1"/>
<path d="M47.6405 41.1379H35.1656C35.1656 41.1379 35.1656 41.3364 35.1656 41.4026C35.662 41.7004 35.8936 42.1967 35.8936 43.3549V62.1168C35.8936 63.2749 35.662 63.7712 35.1656 64.0691C35.1656 64.1352 35.1656 64.3007 35.1656 64.3007H39.2357C39.2357 64.3007 39.2357 64.1352 39.2357 64.0691C38.7393 63.7712 38.5077 63.2749 38.5077 62.1168V52.4876L46.1183 53.2156V51.528L38.5077 52.2229V41.4026H41.2872C44.9602 41.4026 47.0448 43.5865 48.5339 45.2741L48.6993 45.1748L47.6405 41.1379Z" fill="#F4F4F1"/>
<path d="M54.0185 62.1168V40.443H53.7869L50.6764 41.1379C50.6764 41.1379 50.6764 41.3364 50.6764 41.4026C51.3051 41.5019 51.4044 41.8328 51.4044 42.9909V62.1168C51.4044 63.2749 51.1728 63.7712 50.6764 64.0691C50.6764 64.1352 50.6764 64.3007 50.6764 64.3007H54.7465C54.7465 64.3007 54.7465 64.1352 54.7465 64.0691C54.2501 63.7712 54.0185 63.2749 54.0185 62.1168Z" fill="#F4F4F1"/>
<path d="M66.042 48.3845C61.6079 48.3845 57.0746 51.6935 57.0746 57.1533C57.0746 61.7859 60.88 64.4992 65.3471 64.4992C69.7811 64.4992 74.3144 61.0248 74.3144 55.7304C74.3144 51.1641 70.476 48.3845 66.042 48.3845ZM67.895 63.9036C64.1228 65.0287 61.0123 62.1829 59.8542 58.2122C58.696 54.2083 59.7218 50.0721 63.4941 48.9801C67.2663 47.8882 70.3767 50.7008 71.5349 54.6716C72.693 58.6754 71.6672 62.8116 67.895 63.9036Z" fill="#F4F4F1"/>
<path d="M95.2452 48.3845V48.6492C96.7342 49.8405 96.4364 51.6604 95.2452 54.7377L92.7966 61.2233L89.6861 53.1494C88.7927 50.7339 88.3625 49.675 89.3552 48.6492V48.3845H84.2594V48.6492C85.5499 49.7081 86.1455 50.8332 86.9728 52.8847L84.2263 61.6204L80.2556 52.2891C79.4945 50.4361 79.1967 49.5427 80.057 48.6492V48.3845H74.9612V48.6492C76.5826 49.9728 77.2775 51.3957 78.6672 54.6385L82.7704 64.3007H85.3845L84.3918 61.9513L87.1051 53.2156C87.2706 53.6458 91.3406 64.3007 91.3406 64.3007H93.9547L92.8958 61.5542L95.8408 53.8443C96.8997 51.3295 97.8262 49.9066 99.1498 48.6492V48.3845H95.2452Z" fill="#F4F4F1"/>
<path d="M112.243 53.6127H112.971C112.971 53.6127 115.023 53.6127 115.321 53.6127C114.858 49.6088 110.986 48.2522 108.173 48.3845C104.534 48.5831 99.3385 51.0648 99.5039 56.7893C99.6363 62.2491 104.037 64.4992 108.604 64.4992C113.302 64.4992 115.387 61.3888 115.586 59.0394C115.85 56.0282 114.13 54.109 112.243 53.6127ZM106.684 48.7816C109.927 48.1529 112.508 50.4692 112.938 53.348H102.383C102.978 51.0979 104.434 49.2118 106.684 48.7816ZM115.288 59.1056C114.957 61.6866 112.475 63.6389 109.629 63.7712C106.254 63.9036 103.773 62.3815 102.548 58.9071C101.986 57.3187 101.886 55.3665 102.317 53.6127H110.887C113.402 53.6127 115.685 55.6643 115.288 59.1056Z" fill="#F4F4F1"/>
<path d="M126.062 48.3845C122.555 48.3845 121.628 53.2487 121.297 57.2526V48.3845H121.033L117.922 49.1125C117.922 49.1125 117.922 49.2779 117.922 49.3441C118.584 49.4434 118.683 49.7743 118.683 50.9324V62.1168C118.683 63.2749 118.452 63.7712 117.922 64.0691C117.922 64.1352 117.922 64.3007 117.922 64.3007H122.025C122.025 64.3007 122.025 64.1352 122.025 64.0691C121.529 63.7712 121.297 63.2749 121.297 62.1168V60.8263C121.297 58.0136 121.728 49.4765 124.97 48.9801C126.757 48.7154 127.684 51.1641 127.75 53.0502L127.982 53.1825L130 50.3368C128.875 49.0132 127.849 48.3845 126.062 48.3845Z" fill="#F4F4F1"/>
<path d="M17.2067 12.8388C17.2067 12.8388 17.2067 12.905 17.2067 13.1035C18.8281 13.2028 19.7546 14.4602 19.7546 16.4787V20.8796C18.6626 22.0708 17.1736 22.9974 15.1882 23.2621C9.29821 24.0231 4.96346 20.7473 3.17661 14.9235C1.38977 9.06658 3.44133 2.38246 9.09968 1.15814C13.4344 0.231627 17.3721 3.07734 19.7877 6.91575H20.0193L21.012 3.14352C18.1994 1.2905 16.0485 0.363986 12.4748 0.363986C5.92306 0.363986 0 5.65834 0 12.2101C0 18.7619 5.29436 24.0562 11.813 24.0562C18.2986 24.0562 21.4752 20.5487 22.3687 18.6295V15.0558C22.3687 13.8646 22.6003 13.4013 23.0966 13.1035C23.0966 13.0374 23.0966 12.8388 23.0966 12.8388H17.2067Z" fill="#F4F4F1"/>
<path d="M40.0032 23.6261C39.5068 23.3283 39.2752 22.8319 39.2752 21.6738V13.4675C39.2752 9.39748 36.3633 7.94153 33.6168 7.94153C29.1828 7.94153 28.157 12.0447 29.0174 13.9639C26.4695 15.0227 24.451 17.0081 25.0135 20.3833C25.4437 22.7657 28.0909 24.0562 30.8042 24.0562C33.9808 24.0562 35.8008 22.137 36.6611 19.2251V23.8577H40.0032C40.0032 23.8577 40.0032 23.6922 40.0032 23.6261ZM33.319 8.27243C35.6684 8.27243 36.6611 10.4894 36.6611 13.0043V13.2359C36.0986 13.0704 35.4368 12.9381 34.6757 12.9381C33.1205 12.9381 31.1351 13.1697 29.3483 13.8315C28.3556 11.1512 30.341 8.27243 33.319 8.27243ZM31.5984 23.6261C29.9439 23.7253 28.0247 22.6334 27.5945 20.8465C26.1717 15.0227 31.0689 13.2359 34.6757 13.2359C35.7015 13.2359 36.4956 13.4675 36.6611 13.5337V18.6295C35.9993 21.012 34.4772 23.4606 31.5984 23.6261Z" fill="#F4F4F1"/>
<path d="M50.4471 7.94153C46.9396 7.94153 46.0131 12.8057 45.6822 16.8096V7.94153H45.4175L42.307 8.66951C42.307 8.66951 42.307 8.83496 42.307 8.90114C42.9688 9.0004 43.0681 9.3313 43.0681 10.4894V21.6738C43.0681 22.8319 42.8365 23.3283 42.307 23.6261C42.307 23.6922 42.307 23.8577 42.307 23.8577H46.4102C46.4102 23.8577 46.4102 23.6922 46.4102 23.6261C45.9138 23.3283 45.6822 22.8319 45.6822 21.6738V20.3833C45.6822 17.5706 46.1123 9.0335 49.3551 8.53715C51.142 8.27243 52.0685 10.7211 52.1347 12.6072L52.3663 12.7395L54.3848 9.89383C53.2597 8.57024 52.2339 7.94153 50.4471 7.94153Z" fill="#F4F4F1"/>
<path d="M71.5167 23.6261C71.0204 23.3283 70.7888 22.8319 70.7888 21.6738V0H70.5571L67.4136 0.694883C67.4136 0.694883 67.4136 0.893423 67.4136 0.959602C68.0754 1.05887 68.1747 1.38977 68.1747 2.54791V8.23934C67.6121 8.07389 66.9503 7.94153 66.1893 7.94153C62.5163 7.94153 54.9057 9.3313 55.1042 17.5045C55.2366 21.74 58.5456 24.0562 61.2258 24.0562C65.8584 24.0562 67.546 18.8281 68.1747 14.9896V23.8577H71.5167C71.5167 23.8577 71.5167 23.6922 71.5167 23.6261ZM62.7149 23.4606C59.8691 23.9901 57.8507 20.8796 57.6852 18.0008C57.222 9.56293 62.9796 8.17316 66.1893 8.10698C67.2482 8.10698 68.0092 8.3717 68.1747 8.40479V13.0374C68.1747 15.8169 66.4209 22.7326 62.7149 23.4606Z" fill="#F4F4F1"/>
<path d="M86.6183 13.1697H87.3463C87.3463 13.1697 89.3979 13.1697 89.6957 13.1697C89.2324 9.16585 85.3609 7.80918 82.5483 7.94153C78.9084 8.14007 73.7133 10.6218 73.8788 16.3463C74.0111 21.8061 78.4121 24.0562 82.9784 24.0562C87.6772 24.0562 89.7618 20.9458 89.9604 18.5964C90.2251 15.5853 88.5044 13.6661 86.6183 13.1697ZM81.0592 8.33861C84.302 7.70991 86.883 10.0262 87.3132 12.905H76.7576C77.3532 10.6549 78.8091 8.76878 81.0592 8.33861ZM89.6626 18.6626C89.3317 21.2436 86.8499 23.1959 84.0042 23.3283C80.6291 23.4606 78.1473 21.9385 76.923 18.4641C76.3605 16.8758 76.2612 14.9235 76.6914 13.1697H85.2616C87.7765 13.1697 90.0596 15.2213 89.6626 18.6626Z" fill="#F4F4F1"/>
<path d="M107.717 21.6738C107.585 20.4495 107.254 16.975 106.923 13.7653C106.526 9.79456 104.209 7.94153 101.496 7.94153C97.1944 7.94153 96.0693 12.4417 95.6391 16.1478V7.94153H95.4075L92.2971 8.66951C92.2971 8.66951 92.2971 8.83496 92.2971 8.90114C92.9258 9.0004 93.0251 9.3313 93.0251 10.4894V21.6738C93.0251 22.8319 92.7934 23.3283 92.2971 23.6261C92.2971 23.6922 92.2971 23.8577 92.2971 23.8577H96.4002C96.4002 23.8577 96.4002 23.6922 96.4002 23.6261C95.8708 23.3283 95.6391 22.8319 95.6391 21.6738V18.9604C95.6391 16.1809 96.334 9.26512 100.04 8.53715C102.886 7.97462 104.11 10.7873 104.342 13.269C104.507 14.9896 105.004 20.5818 105.103 21.6738C105.202 22.7657 105.07 23.3283 104.54 23.6261C104.54 23.6922 104.54 23.8577 104.54 23.8577H108.643C108.643 23.8577 108.643 23.6922 108.643 23.6261C108.147 23.3283 107.849 22.865 107.717 21.6738Z" fill="#F4F4F1"/>
<path d="M123.827 4.27115C123.807 3.97158 123.765 3.66684 123.703 3.35693C123.641 3.04702 123.564 2.73195 123.471 2.41171C123.378 2.08115 123.306 1.8074 123.254 1.59046C123.202 1.37353 123.176 1.21341 123.176 1.11011C123.176 0.841523 123.244 0.629754 123.378 0.4748C123.522 0.319847 123.714 0.242371 123.951 0.242371C124.189 0.242371 124.375 0.319847 124.509 0.4748C124.654 0.629754 124.726 0.841523 124.726 1.11011C124.726 1.21341 124.695 1.38386 124.633 1.62145C124.581 1.85905 124.504 2.15862 124.401 2.52018C124.297 2.88174 124.215 3.21231 124.153 3.51188C124.101 3.80113 124.065 4.05422 124.044 4.27115H123.827ZM125.392 4.90646L125.237 4.75151C125.31 4.66886 125.403 4.55523 125.516 4.41061C125.63 4.25566 125.738 4.1007 125.842 3.94575C125.955 3.78047 126.038 3.64618 126.09 3.54287L126.399 2.95405C126.823 2.14829 127.236 1.74542 127.639 1.74542C127.825 1.74542 128.001 1.83322 128.166 2.00884C128.331 2.18445 128.414 2.37039 128.414 2.56667C128.414 2.91789 127.995 3.32077 127.159 3.7753C126.735 4.00257 126.374 4.21434 126.074 4.41061C125.785 4.59655 125.558 4.76184 125.392 4.90646ZM122.495 4.87547C122.371 4.77217 122.211 4.6482 122.014 4.50358C121.818 4.35896 121.57 4.20917 121.27 4.05422L120.697 3.74431C119.891 3.31044 119.489 2.89723 119.489 2.50469C119.489 2.32907 119.571 2.15862 119.736 1.99334C119.912 1.82806 120.088 1.74542 120.263 1.74542C120.646 1.74542 121.043 2.13796 121.456 2.92306C121.87 3.67717 122.267 4.28148 122.65 4.73601L122.495 4.87547ZM123.967 7.7421C123.543 7.7421 123.176 7.59748 122.866 7.30823C122.567 7.00866 122.417 6.6471 122.417 6.22356C122.417 5.80002 122.567 5.43847 122.866 5.13889C123.176 4.82898 123.543 4.67403 123.967 4.67403C124.39 4.67403 124.747 4.82898 125.036 5.13889C125.335 5.43847 125.485 5.80002 125.485 6.22356C125.485 6.6471 125.335 7.00866 125.036 7.30823C124.747 7.59748 124.39 7.7421 123.967 7.7421ZM118.822 6.98283C118.264 6.98283 117.985 6.72458 117.985 6.20807C117.985 5.97047 118.058 5.78453 118.202 5.65024C118.347 5.50561 118.554 5.4333 118.822 5.4333C119.06 5.4333 119.401 5.50045 119.845 5.63474C120.32 5.76903 120.744 5.87233 121.116 5.94465C121.487 6.01696 121.777 6.06344 121.983 6.0841V6.30104C121.766 6.31137 121.508 6.34752 121.208 6.40951C120.919 6.46116 120.594 6.5438 120.232 6.65743C119.509 6.87436 119.039 6.98283 118.822 6.98283ZM129.049 6.98283C128.946 6.98283 128.775 6.95701 128.538 6.90536C128.3 6.84337 128.001 6.76073 127.639 6.65743C127.267 6.55413 126.937 6.47149 126.647 6.40951C126.358 6.34752 126.105 6.31137 125.888 6.30104V6.0841C126.188 6.06344 126.487 6.02729 126.787 5.97564C127.097 5.91365 127.412 5.83101 127.732 5.72771C128.362 5.53144 128.801 5.4333 129.049 5.4333C129.318 5.4333 129.529 5.50561 129.684 5.65024C129.839 5.78453 129.917 5.97047 129.917 6.20807C129.917 6.45599 129.839 6.6471 129.684 6.78139C129.529 6.91569 129.318 6.98283 129.049 6.98283ZM127.639 10.6707C127.257 10.6707 126.844 10.2627 126.399 9.44659L126.09 8.87326C125.924 8.57368 125.769 8.32576 125.625 8.12949C125.48 7.92288 125.356 7.76276 125.253 7.64913L125.408 7.49418C125.47 7.54583 125.578 7.62847 125.733 7.7421C125.888 7.85573 126.048 7.96937 126.213 8.083C126.379 8.19663 126.513 8.28444 126.616 8.34642L127.19 8.65633C128.006 9.10052 128.414 9.50857 128.414 9.88046C128.414 10.0664 128.326 10.2472 128.15 10.4228C127.975 10.5881 127.804 10.6707 127.639 10.6707ZM120.263 10.6707C120.088 10.6707 119.912 10.5881 119.736 10.4228C119.571 10.2575 119.489 10.0871 119.489 9.91145C119.489 9.5189 119.891 9.10569 120.697 8.67182L121.27 8.36191C121.425 8.27927 121.601 8.16564 121.797 8.02102C122.004 7.8764 122.231 7.70595 122.479 7.50967L122.619 7.66463C122.557 7.73694 122.469 7.85057 122.355 8.00552C122.242 8.16048 122.133 8.32059 122.03 8.48588C121.926 8.65116 121.849 8.78545 121.797 8.88876L121.487 9.47758C121.064 10.273 120.656 10.6707 120.263 10.6707ZM123.951 12.1738C123.714 12.1738 123.522 12.1015 123.378 11.9568C123.244 11.8122 123.176 11.6056 123.176 11.337C123.176 11.2337 123.202 11.0736 123.254 10.8567C123.306 10.6397 123.378 10.3608 123.471 10.0199C123.564 9.68935 123.641 9.36911 123.703 9.0592C123.765 8.7493 123.807 8.45489 123.827 8.17597H124.044C124.065 8.39291 124.101 8.646 124.153 8.93524C124.215 9.22449 124.297 9.55505 124.401 9.92694C124.617 10.6501 124.726 11.1201 124.726 11.337C124.726 11.5953 124.654 11.7967 124.509 11.9413C124.375 12.0963 124.189 12.1738 123.951 12.1738Z" fill="#F6F971"/>
</svg>
